<?xml version="1.0" encoding="UTF-8" standalone="no"?>
<!-- Created with Inkscape (http://www.inkscape.org/) -->

<svg
   width="200mm"
   height="200mm"
   viewBox="0 0 200 199.99999"
   version="1.1"
   id="svg1"
   xml:space="preserve"
   inkscape:version="1.3.2 (091e20e, 2023-11-25)"
   sodipodi:docname="logo.svg"
   xmlns:inkscape="http://www.inkscape.org/namespaces/inkscape"
   xmlns:sodipodi="http://sodipodi.sourceforge.net/DTD/sodipodi-0.dtd"
   xmlns="http://www.w3.org/2000/svg"
   xmlns:svg="http://www.w3.org/2000/svg"><sodipodi:namedview
     id="namedview1"
     pagecolor="#ffffff"
     bordercolor="#000000"
     borderopacity="0.25"
     inkscape:showpageshadow="true"
     inkscape:pageopacity="0.0"
     inkscape:pagecheckerboard="true"
     inkscape:deskcolor="#d1d1d1"
     inkscape:document-units="px"
     inkscape:zoom="0.23528242"
     inkscape:cx="429.27134"
     inkscape:cy="-31.876584"
     inkscape:window-width="1344"
     inkscape:window-height="744"
     inkscape:window-x="0"
     inkscape:window-y="25"
     inkscape:window-maximized="0"
     inkscape:current-layer="svg1"
     showguides="true" /><defs
     id="defs1" /><g
     id="g11965"
     transform="matrix(0.95199792,0,0,0.95848126,-3.5604032,-38.466083)"><path
       style="display:inline;fill:#fefefe"
       d="m 94.858836,207.69686 c 0.400182,-0.15914 0.727604,-0.44718 0.727604,-0.6401 0,-0.19292 -0.593809,-1.1353 -1.319576,-2.09417 -2.131098,-2.81557 -3.301191,-4.62787 -4.472114,-6.92665 -1.055259,-2.07171 -2.14581,-4.8672 -2.14581,-5.50052 0,-0.16576 0.446485,-0.32877 0.992188,-0.36225 1.181242,-0.0725 5.004505,-0.53117 5.754687,-0.69043 6.885455,-1.46173 14.163535,-3.31915 16.210105,-4.13695 0.49506,-0.19782 0.86437,-0.0402 2.11667,0.90357 4.98393,3.75591 6.57224,4.81309 9.18989,6.11682 2.97255,1.48047 7.5481,3.22519 10.38809,3.9611 3.08857,0.80033 10.82114,2.00165 13.96634,2.1698 3.57439,0.19108 4.35286,-0.009 4.35286,-1.11649 0,-0.90468 -0.78811,-1.61186 -3.45926,-3.10405 -3.0887,-1.72544 -6.31211,-4.35674 -10.57134,-8.62951 -3.42078,-3.43165 -5.82493,-6.49858 -5.80285,-7.4026 0.006,-0.26288 0.91348,-0.87003 2.4087,-1.61229 1.31912,-0.65485 3.5415,-1.81571 4.93861,-2.57969 1.39712,-0.76398 2.613,-1.38906 2.70196,-1.38906 0.089,0 0.41619,0.45272 0.72718,1.00606 1.78537,3.17665 3.4702,2.26987 4.09823,-2.20568 0.197,-1.40393 0.39713,-2.00347 0.70095,-2.0999 0.23387,-0.0742 1.37685,-0.678 2.53996,-1.34171 l 2.11474,-1.20674 0.39687,0.59795 c 0.99344,1.49676 1.65457,2.07502 2.37237,2.07502 0.40581,0 0.88072,-0.17217 1.05536,-0.3826 0.42635,-0.51372 1.04908,-3.18942 1.06076,-4.55782 0.009,-1.00734 0.0847,-1.12893 0.86932,-1.38922 0.47295,-0.15689 1.57427,-0.76105 2.4474,-1.34259 0.87312,-0.58154 1.66191,-1.05772 1.75286,-1.05818 0.091,-4.6e-4 0.23741,0.35939 0.32547,0.79967 0.2402,1.201 1.28314,2.1099 2.42106,2.1099 0.82468,0 0.99869,-0.11466 1.30496,-0.85989 0.19437,-0.47294 0.51185,-1.90777 0.70551,-3.18851 l 0.35212,-2.32862 1.4638,-0.82998 c 0.80509,-0.45649 1.78976,-1.06703 2.18815,-1.35676 0.39839,-0.28972 0.76416,-0.4757 0.81281,-0.41327 0.0487,0.0624 0.41104,0.67685 0.80531,1.3654 0.81628,1.42556 1.52264,1.90738 2.45367,1.67371 0.81481,-0.20451 1.06323,-0.76311 1.65406,-3.71937 l 0.47591,-2.38125 2.07677,-1.12448 c 1.14222,-0.61846 2.20591,-1.12447 2.36376,-1.12447 0.31087,0 0.35503,0.081 2.78933,5.11745 2.42496,5.0171 6.73383,11.3375 11.09732,16.27792 4.40805,4.99086 14.31618,11.47114 19.03647,12.45054 1.70172,0.35308 2.67378,-0.0744 2.67378,-1.17592 0,-0.36041 -1.30976,-3.26955 -2.91059,-6.46475 -5.55338,-11.08442 -8.01204,-17.45787 -12.30356,-31.89379 -0.38934,-1.30968 -0.80443,-2.48241 -0.92241,-2.60606 -0.11799,-0.12364 0.005,-0.72088 0.27312,-1.32719 0.2682,-0.60632 0.61522,-1.69578 0.77115,-2.42103 0.39292,-1.82743 2.27981,-8.28911 3.16649,-10.84363 1.79995,-5.18569 3.31031,-9.34308 3.74875,-10.31875 0.26157,-0.58208 0.91179,-2.1299 1.44494,-3.43958 0.53315,-1.30969 1.05619,-2.50032 1.16232,-2.64584 0.10613,-0.14552 0.58941,-1.27661 1.07397,-2.51354 0.75741,-1.93348 1.6317,-3.98781 4.25712,-10.003019 l 0.49734,-1.139479 -0.67316,-0.673152 c -0.57139,-0.5714 -0.82091,-0.645753 -1.65067,-0.491887 -4.03778,0.748744 -11.65815,5.846317 -16.86109,11.279057 -4.96759,5.18701 -10.77125,13.51077 -13.44608,19.28473 -0.5056,1.09141 -1.39423,3.01786 -1.97472,4.28101 l -1.05545,2.29664 -2.07634,-1.03317 c -1.14198,-0.56824 -2.20834,-1.03618 -2.36967,-1.03987 -0.16722,-0.004 -0.47315,-1.1726 -0.71156,-2.71852 -0.35747,-2.31797 -0.51875,-2.79832 -1.11047,-3.3073 -0.38075,-0.3275 -0.903,-0.59546 -1.16056,-0.59546 -0.5558,0 -1.38854,0.85738 -1.99159,2.05052 -0.23904,0.47295 -0.51107,0.8599 -0.60451,0.8599 -0.33069,0 -4.71422,-2.4537 -4.90569,-2.74598 -0.10692,-0.1632 -0.19905,-1.0111 -0.20475,-1.88423 -0.0201,-3.07851 -0.6272,-4.36562 -2.05915,-4.36562 -0.62866,0 -1.99985,1.18982 -2.5959,2.25255 -0.28037,0.4999 -0.34755,0.48296 -1.7334,-0.4372 -0.79295,-0.52648 -1.94161,-1.21227 -2.55259,-1.52397 l -1.11087,-0.56672 v -2.317 c 0,-2.87261 -0.36095,-3.56277 -1.79984,-3.44141 -0.7793,0.0657 -1.12228,0.30049 -1.85731,1.27125 -1.01125,1.33557 -1.47085,1.54807 -2.11722,0.97894 -0.24384,-0.2147 -1.18537,-0.76156 -2.09231,-1.21526 -1.79225,-0.89659 -1.79055,-0.89351 -2.03544,-3.67848 -0.0806,-0.91622 -0.27023,-1.89708 -0.42148,-2.17969 -0.69627,-1.30098 -2.79959,-0.6962 -3.69709,1.06304 l -0.53213,1.04306 -3.93659,-1.95772 c -2.16512,-1.07675 -4.36762,-2.13782 -4.89442,-2.35793 -0.52681,-0.22012 -0.95784,-0.53845 -0.95784,-0.7074 0,-0.64444 1.69809,-3.44881 3.69042,-6.0947 3.03867,-4.035457 7.7291,-8.350971 13.01374,-11.973521 2.89542,-1.984774 3.43387,-2.726605 2.74365,-3.780012 -0.2255,-0.344159 -0.67515,-0.641109 -0.99922,-0.659888 -3.99645,-0.231586 -11.04628,1.105164 -17.64233,3.345243 -6.69145,2.272477 -11.53655,4.909075 -17.21042,9.365546 -3.10296,2.437176 -2.80319,2.353066 -4.05958,1.139043 -2.27425,-2.197562 -5.58229,-4.808383 -7.14961,-5.642728 -0.89271,-0.475221 -2.51607,-1.450282 -3.607477,-2.166802 -2.143045,-1.406932 -9.85056,-5.250799 -13.493749,-6.729558 -3.166941,-1.285452 -5.376061,-2.141372 -7.672917,-2.972859 -1.091406,-0.395101 -2.77334,-1.083642 -3.737631,-1.530091 -1.898879,-0.879146 -4.598704,-1.652817 -5.767718,-1.652817 -0.859064,0 -3.307272,1.527344 -6.102347,3.807022 -2.763802,2.254173 -9.265855,8.629697 -11.22814,11.009644 -2.07436,2.515875 -4.585298,6.13153 -5.079462,7.31423 -0.209323,0.500983 -0.585185,0.980775 -0.835248,1.066205 -8.420074,2.876583 -16.978925,7.474703 -22.415076,12.042163 -7.537167,6.33274 -13.269096,13.91853 -16.0070353,21.18415 -1.9607657,5.20325 -2.4904878,7.77336 -2.4673977,11.97137 0.021985,3.99711 0.3194563,5.78551 1.6566943,9.9601 3.1485288,9.82906 12.6069997,20.69424 23.1677387,26.61335 5.111684,2.86501 9.086945,4.55902 17.462499,7.44144 2.527383,0.86979 10.189667,2.51498 13.145834,2.82258 1.07084,0.11142 1.821327,0.32105 1.901995,0.53126 0.07328,0.19098 0.706095,0.67517 1.406248,1.07599 0.700153,0.40081 2.93988,2.06376 4.977172,3.69543 7.468915,5.98187 13.095301,8.89586 19.753149,10.23043 3.516861,0.70497 5.366567,0.82931 6.374454,0.42852 z M 62.778108,178.00111 c 0,-0.056 0.30637,-0.3026 0.680822,-0.54795 0.66513,-0.43581 0.674063,-0.43347 0.387566,0.10186 -0.242239,0.45262 -1.068388,0.79757 -1.068388,0.44609 z M 29.242173,156.75392 c 0.254661,-0.0666 0.67138,-0.0666 0.926041,0 0.254662,0.0666 0.0463,0.121 -0.463021,0.121 -0.509323,0 -0.717682,-0.0545 -0.46302,-0.121 z m 5.953124,-0.004 c 0.327422,-0.0631 0.863203,-0.0631 1.190625,0 0.327422,0.0631 0.05953,0.11466 -0.595312,0.11466 -0.654844,0 -0.922735,-0.0516 -0.595313,-0.11466 z m -8.064756,-0.26121 c 0.257431,-0.0671 0.614619,-0.0627 0.79375,0.01 0.179132,0.0725 -0.03149,0.12736 -0.468056,0.12197 -0.436562,-0.005 -0.583125,-0.0647 -0.325694,-0.13177 z m 12.843792,-0.26197 c 0.190996,-0.0764 0.4192,-0.067 0.507118,0.0209 0.08792,0.0879 -0.06835,0.15045 -0.347265,0.13896 -0.308225,-0.0127 -0.370919,-0.0754 -0.159853,-0.15985 z m -2.260459,-3.70678 c 0.257431,-0.0671 0.614619,-0.0627 0.79375,0.01 0.179132,0.0725 -0.03149,0.12736 -0.468056,0.12197 -0.436563,-0.005 -0.583125,-0.0647 -0.325694,-0.13177 z M 8.8031111,145.29464 c 0,-0.58208 0.047025,-1.05833 0.104501,-1.05833 0.057476,0 0.1499188,0.47625 0.2054293,1.05833 0.055511,0.58208 0.00849,1.05833 -0.104501,1.05833 -0.1129861,0 -0.2054293,-0.47625 -0.2054293,-1.05833 z m 29.6333319,-0.3635 c -3.139093,-0.86419 -5.514209,-2.8414 -6.982265,-5.81252 -0.900454,-1.82238 -0.968048,-2.13212 -1.025752,-4.70048 -0.06175,-2.74849 -0.06135,-2.75041 1.050531,-4.9985 1.736876,-3.51177 3.543282,-5.01826 7.140921,-5.95533 5.233062,-1.36304 10.888338,1.37562 13.39036,6.4845 0.778026,1.58865 0.841743,1.92154 0.835592,4.36562 -0.0061,2.4385 -0.06716,2.7495 -0.778763,3.96875 -0.980302,1.67964 -2.564435,3.84462 -3.210439,4.38758 -1.05375,0.88567 -3.196669,2.016 -4.385786,2.31337 -1.581881,0.3956 -4.497991,0.36999 -6.034399,-0.053 z m 6.686383,-3.2455 c 1.273116,-0.65836 2.849224,-2.24964 3.484401,-3.51796 2.29474,-4.58212 0.913469,-9.0296 -3.462229,-11.14784 -1.340115,-0.64874 -4.770041,-0.97075 -5.385639,-0.50562 -0.308555,0.23314 -0.3211,0.33046 -0.05637,0.43733 0.187278,0.0756 0.679071,0.42234 1.092873,0.77053 2.471044,2.07925 1.548313,5.40173 -1.500186,5.40173 -1.023051,0 -1.32593,-0.13986 -2.20363,-1.01756 -0.717801,-0.7178 -1.068465,-1.33591 -1.190364,-2.09822 -0.164726,-1.03014 -0.195278,-1.05972 -0.653589,-0.63274 -1.684458,1.56931 -2.285451,6.21045 -1.09509,8.45679 1.376906,2.59837 3.427408,4.08541 6.204186,4.49932 1.541481,0.22977 3.616181,-0.0514 4.765637,-0.64576 z M 33.854684,128.3117 c -0.08446,-0.21107 -0.147157,-0.14837 -0.159853,0.15985 -0.01149,0.27891 0.05105,0.43518 0.138965,0.34727 0.08792,-0.0879 0.09732,-0.31613 0.02089,-0.50712 z m 147.721336,13.94023 c -0.18116,-0.21828 -0.24676,-0.39687 -0.14579,-0.39687 0.10097,0 0.36218,0.17859 0.58046,0.39687 0.21828,0.21828 0.28389,0.39688 0.14579,0.39688 -0.1381,0 -0.3993,-0.1786 -0.58046,-0.39688 z m -1.87338,-0.42171 c 0.4239,-0.16944 0.73227,-0.16377 0.91281,0.0168 0.18715,0.18714 -0.0136,0.26739 -0.64016,0.25588 -0.8577,-0.0158 -0.87416,-0.0322 -0.27265,-0.27265 z m -1.6985,-0.50433 c -0.19522,-0.31587 0.32327,-0.31587 1.05834,0 0.4725,0.20304 0.45292,0.22938 -0.18283,0.24599 -0.39159,0.0102 -0.78557,-0.10047 -0.87551,-0.24599 z M 87.119774,140.2002 c 0.07276,-0.08 1.203854,-0.56295 2.513541,-1.07317 12.045635,-4.69274 16.978775,-5.85622 24.870835,-5.8658 4.52667,-0.005 6.21771,0.20344 6.21771,0.76821 0,0.81705 -0.76383,0.93499 -6.76639,1.04483 -5.60743,0.10261 -7.75087,0.30293 -10.16695,0.95018 -0.50932,0.13644 -2.29526,0.55654 -3.968747,0.93356 -1.67349,0.37701 -3.340364,0.84627 -3.704167,1.04279 -1.119838,0.60492 -4.816367,1.67322 -6.349999,1.83515 -0.800365,0.0845 -1.752865,0.23378 -2.116667,0.3317 -0.363802,0.0979 -0.601927,0.11257 -0.529166,0.0325 z m -76.471015,-4.89358 c 1.263614,-3.5278 2.126977,-5.38831 3.772092,-8.12872 4.589221,-7.64465 14.13227,-15.93932 23.204133,-20.16867 3.416157,-1.59263 7.501116,-3.04021 8.213707,-2.91067 0.608201,0.11057 2.316923,0.75813 4.37171,1.65677 0.563845,0.24659 0.649272,0.35204 0.294938,0.36406 -0.274347,0.009 -2.060284,0.49773 -3.96875,1.0854 -4.563328,1.40515 -10.43419,4.26884 -15.08861,7.3599 -4.72313,3.13669 -7.316545,5.2967 -11.832477,9.85504 -2.927661,2.95515 -4.098286,4.38001 -6.212553,7.56174 -1.432835,2.15625 -2.750554,4.24788 -2.928265,4.64807 -0.6447725,1.45194 -0.5431108,0.67934 0.174075,-1.32292 z m 173.693901,0.52917 c 0.2658,-1.08547 1.86945,-4.89245 3.26001,-7.73907 3.08756,-6.32055 9.53045,-15.00312 13.87124,-18.69316 3.12806,-2.65912 5.2859,-4.25227 4.88845,-3.60917 -0.36819,0.59574 0.97566,0.16528 1.37534,-0.44055 0.35918,-0.54445 0.3644,-0.61601 0.0321,-0.44006 -0.21828,0.11556 -0.0992,-0.0357 0.26458,-0.33613 0.95842,-0.79148 1.11417,-0.6829 0.50396,0.35133 -0.29509,0.50014 -1.33287,1.56112 -2.30618,2.35772 -0.97331,0.79661 -2.67457,2.3817 -3.78058,3.52243 -1.10601,1.14073 -2.47522,2.50221 -3.04271,3.02552 -0.92434,0.85239 -1.74624,1.88694 -4.28889,5.39853 -2.35697,3.25516 -6.64746,10.22371 -8.83745,14.35365 -1.522,2.87022 -2.31794,3.79299 -1.93984,2.24896 z m 15.32598,-22.70177 c 0.0904,-0.23546 0.046,-0.34166 -0.10399,-0.24896 -0.14385,0.0889 -0.26155,0.27368 -0.26155,0.41061 0,0.38059 0.18965,0.29672 0.36554,-0.16165 z m 4.13238,-4.0674 c 0,-0.13458 0.50284,-0.72314 1.11742,-1.30792 0.61459,-0.58478 1.0541,-1.12657 0.97669,-1.20398 -0.0774,-0.0774 -0.78454,0.51116 -1.57141,1.30793 -0.97693,0.98921 -1.28669,1.44866 -0.97669,1.44866 0.2497,0 0.45399,-0.11011 0.45399,-0.24469 z M 88.922247,135.05973 c 0.190997,-0.0764 0.4192,-0.067 0.507119,0.0209 0.08792,0.0879 -0.06835,0.15045 -0.347266,0.13896 -0.308225,-0.0127 -0.370919,-0.0754 -0.159853,-0.15985 z m 71.807403,-7.62644 c -0.47868,-0.20797 -0.79896,-0.26265 -0.71174,-0.12152 0.30855,0.49923 -1.75098,0.0109 -3.0611,-0.72577 -6.16579,-3.46711 -11.3678,-6.2401 -18.90475,-10.0774 -1.55729,-0.79286 -5.06107,-2.46536 -9.26041,-4.42037 -2.76401,-1.28678 -6.53981,-2.71875 -13.09688,-4.96696 -3.66186,-1.25554 -12.25008,-3.2661 -18.917705,-4.42877 -5.951208,-1.03774 -15.621214,-1.48045 -23.547916,-1.07807 -5.705459,0.28963 -6.722413,0.37308 -8.731249,0.71643 -4.538644,0.77576 -6.75653,1.19224 -7.496804,1.40778 -0.686988,0.20002 -1.184678,0.14607 -2.248959,-0.24379 -0.751705,-0.27537 -2.051346,-0.6951 -2.888091,-0.93275 -0.836744,-0.23765 -1.521354,-0.51469 -1.521354,-0.61565 0,-0.10095 1.398985,-0.4454 3.108854,-0.76543 1.70987,-0.32003 4.537604,-0.87281 6.283854,-1.228394 3.323588,-0.676778 4.253918,-0.837817 6.217708,-1.076273 0.654844,-0.07952 2.202656,-0.267084 3.439583,-0.416817 2.305289,-0.279063 15.486119,-0.370508 16.841042,-0.11684 0.414562,0.07761 2.003905,0.247621 3.531874,0.377793 1.527968,0.130172 3.254375,0.302079 3.836458,0.382017 0.582083,0.07994 1.594114,0.21918 2.248958,0.309427 0.654844,0.09025 1.607344,0.212413 2.116667,0.271481 1.29864,0.150607 1.85944,0.267084 7.67292,1.593656 6.57643,1.50066 11.66021,3.13367 19.44687,6.24669 4.88908,1.95461 19.943,9.64608 23.15104,11.82852 0.3638,0.24749 1.67349,1.02515 2.91042,1.72812 3.05418,1.73576 9.83121,5.93334 10.3093,6.3854 0.47765,0.45166 0.37527,0.44709 -0.72859,-0.0325 z m 46.02147,-21.81292 c 0.0582,-0.17462 0.19216,-0.30857 0.29766,-0.29766 0.31636,0.0327 0.25509,0.39563 -0.086,0.50933 -0.17463,0.0582 -0.26988,-0.037 -0.21167,-0.21167 z m -88.14593,-8.259409 c 0,-0.169774 0.0752,-0.233458 0.16716,-0.14152 0.0919,0.09194 0.61574,-0.215641 1.164,-0.683507 1.15511,-0.985738 4.61473,-3.099625 5.07289,-3.099625 0.18299,0 0.1395,0.136546 -0.10534,0.330729 -0.22935,0.181901 -0.46455,0.491807 -0.52266,0.68868 -0.11592,0.392726 -4.8871,3.213924 -5.43535,3.213924 -0.18739,0 -0.3407,-0.138907 -0.3407,-0.308681 z m -28.083625,-8.88559 c 0.666218,-0.950059 0.621289,-0.923969 1.205257,-0.69988 0.229348,0.08801 0.351121,0.266603 0.270608,0.396875 -0.226535,0.366543 -0.697192,0.279578 -0.508026,-0.09387 0.09214,-0.181901 0.0099,-0.152135 -0.182822,0.06615 -0.192693,0.218281 -0.583823,0.575469 -0.86918,0.79375 -0.449657,0.343963 -0.438436,0.282231 0.08416,-0.463021 z m -7.449369,-1.556084 c -0.08211,-0.08211 -0.07568,-0.346015 0.0143,-0.586449 0.146464,-0.391363 0.109911,-0.396641 -0.348959,-0.05038 -0.281907,0.212723 -0.155371,-0.004 0.281191,-0.481555 1.60659,-1.757532 3.319617,-2.350724 2.782544,-0.963548 -0.227702,0.588116 -2.494003,2.317013 -2.72908,2.081936 z m -15.74641,-5.02633 c -0.164852,-0.294572 -0.299481,-0.336416 -0.425637,-0.132291 -0.101487,0.164208 -0.311732,0.29856 -0.467213,0.29856 -0.39882,0 2.956197,-2.65232 3.731553,-2.949991 1.025756,-0.393804 1.235811,0.299392 0.332693,1.097908 -1.936351,1.712075 -2.706517,2.253161 -2.322369,1.631597 0.07495,-0.121268 -0.02574,-0.220486 -0.223743,-0.220486 -0.198006,0 -0.299093,0.15875 -0.224637,0.352777 0.191223,0.498321 -0.111044,0.439418 -0.400647,-0.07807 z"
       id="path11968"
       sodipodi:nodetypes="sssssssscsssssscssssssscssscssssssscsscssscssssssssscssssssscssssscscssssssssssscsssssssscsssssssssssssssssssssssssssssssssssscssccssccccccssssscccccssssssssssscssssscssssssssssscssssssssssssssssssscccsssssssccsssssccssssssssssssssssssssssssssssssssssssscsssssssssssssssssssssssssssssssscssssssssssssssssscsssssssssssss" /><path
       style="display:inline;fill:#b2dee1"
       d="m 145.52654,200.41732 c 0.1819,-0.0734 0.47956,-0.0734 0.66146,0 0.1819,0.0734 0.0331,0.13346 -0.33073,0.13346 -0.3638,0 -0.51263,-0.0601 -0.33073,-0.13346 z m -83.046764,-7.9607 c -0.329108,-0.41965 -0.319749,-0.42901 0.09989,-0.0999 0.440729,0.34564 0.580887,0.56292 0.363126,0.56292 -0.05494,0 -0.263302,-0.20836 -0.463021,-0.46302 z m 14.255102,-3.68096 c 0.181901,-0.0734 0.479558,-0.0734 0.661459,0 0.181901,0.0734 0.03307,0.13345 -0.33073,0.13345 -0.363802,0 -0.51263,-0.06 -0.330729,-0.13345 z m 59.455152,-1.21384 -1.31297,-1.38906 1.38907,1.31297 c 1.29074,1.22004 1.5104,1.46516 1.31297,1.46516 -0.0419,0 -0.66693,-0.62508 -1.38907,-1.38907 z m 78.14471,-2.23126 c 0.191,-0.0764 0.4192,-0.067 0.50712,0.0209 0.0879,0.0879 -0.0684,0.15045 -0.34727,0.13897 -0.30822,-0.0127 -0.37092,-0.0754 -0.15985,-0.15986 z M 55.369775,181.96774 c 0,-0.0572 0.184778,-0.17489 0.410617,-0.26156 0.235459,-0.0904 0.341662,-0.046 0.248969,0.10399 -0.155379,0.25141 -0.659586,0.37186 -0.659586,0.15757 z m 2.116667,-1.05834 c 0,-0.0572 0.184777,-0.17489 0.410617,-0.26155 0.235459,-0.0904 0.341662,-0.046 0.248968,0.10398 -0.155379,0.25141 -0.659585,0.37186 -0.659585,0.15757 z m 1.058333,-0.55006 c 0,-0.0719 0.625078,-0.44377 1.389063,-0.8263 0.763984,-0.38253 1.796392,-1.00145 2.294241,-1.37538 0.497848,-0.37392 0.818243,-0.5392 0.711989,-0.36728 -0.117445,0.19003 -0.02924,0.31259 0.224973,0.31259 0.229989,0 0.552082,-0.29392 0.715762,-0.65316 0.163681,-0.35924 0.399253,-0.59034 0.523495,-0.51355 0.124241,0.0768 0.225893,0.0336 0.225893,-0.0959 0,-0.12952 0.319096,-0.40444 0.709101,-0.61093 1.201354,-0.63606 5.864272,-5.2679 7.533941,-7.48371 2.973092,-3.9456 5.845982,-10.5397 7.124787,-16.35343 0.783486,-3.5619 0.948775,-9.21062 0.400418,-13.68422 -0.238915,-1.94911 -0.40193,-3.56653 -0.362256,-3.59428 0.16933,-0.1184 8.413607,-0.66839 9.861716,-0.65789 1.584808,0.0115 1.586072,0.0121 0.745197,0.37786 -0.463267,0.2015 -1.11811,0.31458 -1.455208,0.2513 -0.337098,-0.0633 -0.447525,-0.0388 -0.245394,0.0545 0.236751,0.10921 -0.281007,0.51034 -1.455209,1.12741 -1.59432,0.83785 -1.832717,1.06039 -1.90251,1.77596 -0.06575,0.67415 0.08782,0.94593 0.872842,1.5447 0.603919,0.46063 1.117384,0.6628 1.402708,0.55231 0.247541,-0.0959 1.104918,-0.22268 1.905283,-0.28182 l 1.455208,-0.10753 -1.988058,0.64432 -1.988058,0.64433 -0.01283,2.98759 c -0.01032,2.4013 -0.105047,3.12828 -0.482722,3.70445 -0.729863,1.11347 -0.368898,2.03493 1.369791,3.49679 1.639545,1.37849 4.493448,2.90583 7.202923,3.85482 2.426733,0.84996 7.810289,1.05309 10.724809,0.40467 2.61917,-0.58271 5.1849,-1.54544 6.86998,-2.57781 1.61866,-0.99167 1.884,-1.22272 5.42805,-4.72657 2.85788,-2.82546 3.88317,-4.2224 4.60904,-6.27973 l 0.39688,-1.12488 -0.85047,-0.51721 c -0.50048,-0.30436 -1.06357,-0.44957 -1.36827,-0.35286 -0.38098,0.12091 -0.23668,-0.17696 0.54613,-1.12737 0.58515,-0.71043 1.46612,-1.86157 1.95771,-2.55807 l 0.8938,-1.26638 2.13106,0.15458 c 19.86072,1.44057 23.95373,1.84084 33.74877,3.3004 8.33398,1.24185 19.2984,2.72808 22.98508,3.11564 0.68719,0.0722 1.2302,0.003 1.33736,-0.1703 0.21771,-0.35226 3.22983,0.73714 3.39318,1.22721 0.0801,0.24037 -0.0938,0.24607 -0.73098,0.0239 -0.47366,-0.16512 -1.4285,-0.22016 -2.20257,-0.12696 -2.66178,0.32046 -3.08623,0.47908 -3.08623,1.15336 0,0.23395 -0.0708,0.35459 -0.15727,0.26809 -0.15546,-0.15546 -2.84207,1.19157 -5.66357,2.83963 -0.80036,0.4675 -3.5388,2.02616 -6.08541,3.46369 -2.54662,1.43753 -5.88037,3.37741 -7.40834,4.31085 -5.83733,3.56605 -9.88106,5.76876 -16.80104,9.15188 -8.79285,4.29876 -9.67365,4.66575 -20.10833,8.37825 -3.38882,1.20569 -12.72005,3.66056 -18.91771,4.9769 -6.12733,1.3014 -11.347702,1.829 -22.754159,2.29969 -2.255573,0.0931 -4.164673,0.20488 -4.242445,0.24845 -0.33666,0.1886 -12.524778,-0.45469 -14.807554,-0.78154 l -2.513541,-0.35989 -2.050521,1.02978 c -1.127787,0.56638 -2.050521,0.97093 -2.050521,0.899 z M 182.01069,142.25193 c -0.21828,-0.21828 -0.47949,-0.39687 -0.58046,-0.39687 -0.10097,0 -0.0354,0.17859 0.14579,0.39687 0.18116,0.21828 0.44236,0.39688 0.58046,0.39688 0.1381,0 0.0725,-0.1786 -0.14579,-0.39688 z m -1.39524,-0.40494 c -0.18054,-0.18054 -0.48891,-0.18621 -0.91281,-0.0168 -0.60151,0.24043 -0.58505,0.25689 0.27265,0.27265 0.62654,0.0115 0.82731,-0.0687 0.64016,-0.25588 z m -1.55297,-0.5211 c -0.73507,-0.31587 -1.25356,-0.31587 -1.05834,0 0.0899,0.14552 0.48392,0.25621 0.87551,0.24599 0.63575,-0.0166 0.65533,-0.0429 0.18283,-0.24599 z m -53.99058,36.65939 c 0.28248,-0.22631 0.62974,-0.41148 0.77171,-0.41148 0.33616,0 0.18606,0.12222 -0.62384,0.50793 -0.62369,0.29703 -0.63213,0.29152 -0.14787,-0.0965 z m -78.168791,-0.96884 c -4.054503,-0.31468 -8.380066,-1.18537 -11.641743,-2.34336 -4.946984,-1.75631 -9.843602,-4.16292 -13.352007,-6.56228 -1.1641,-0.79612 -2.150963,-1.31014 -2.204861,-1.14845 -0.05366,0.16099 -0.219447,0.2927 -0.36841,0.2927 -0.148963,0 -0.199937,-0.18477 -0.113274,-0.41061 0.08666,-0.22584 0.05235,-0.34559 -0.07626,-0.26611 -0.128605,0.0795 -0.309739,-0.0533 -0.402518,-0.29508 -0.13189,-0.3437 -0.238464,-0.36982 -0.488533,-0.11975 -0.25007,0.25007 -0.233748,0.37427 0.07482,0.56935 0.231894,0.14661 0.26592,0.25119 0.0825,0.25357 -0.426527,0.006 -3.705477,-4.41475 -5.198065,-7.00741 -1.498873,-2.60357 -2.520896,-4.91729 -2.366671,-5.35781 0.06368,-0.1819 -0.03304,-0.33073 -0.214943,-0.33073 -0.181901,0 -0.252387,-0.0783 -0.156636,-0.17409 0.09575,-0.0957 0.05229,-0.32086 -0.09657,-0.50023 -0.148868,-0.17938 -0.296663,-0.69611 -0.328434,-1.1483 -0.03177,-0.45219 -0.1470619,-0.8224 -0.2562025,-0.82269 -0.1091406,-2.8e-4 -0.1984375,-0.11696 -0.1984375,-0.25928 0,-0.14231 0.559761,0.0962 1.243913,0.53011 0.684152,0.43388 2.26173,1.11587 3.505729,1.51553 1.243999,0.39966 2.301751,0.8167 2.35056,0.92675 0.04881,0.11004 0.187646,0.13896 0.308526,0.0642 0.120881,-0.0747 0.557196,0.003 0.96959,0.17307 0.412393,0.1699 0.898635,0.2846 1.080536,0.25488 0.181901,-0.0297 0.330729,0.057 0.330729,0.19276 0,0.13573 0.148828,0.23024 0.330729,0.21003 0.477517,-0.0531 5.729633,0.87156 6.753579,1.18895 0.476629,0.14774 1.22077,0.19082 1.653645,0.0958 0.432876,-0.0951 0.787061,-0.0741 0.787079,0.0466 3.9e-5,0.26646 7.684352,0.29113 8.0979,0.026 0.160999,-0.10322 0.568896,-0.13448 0.906437,-0.0695 0.337542,0.065 0.765649,-0.008 0.951349,-0.16202 0.185701,-0.15412 0.587189,-0.20101 0.892197,-0.1042 0.305251,0.0969 0.725758,0.0339 0.935369,-0.14004 0.209445,-0.17382 0.557106,-0.24839 0.77258,-0.1657 0.215474,0.0827 0.468105,0.0268 0.561401,-0.12413 0.0933,-0.15096 0.454297,-0.20302 0.802223,-0.1157 0.386545,0.097 0.632594,0.0429 0.632594,-0.13916 0,-0.16386 0.178594,-0.2294 0.396875,-0.14563 0.218281,0.0838 0.396875,0.0587 0.396875,-0.0557 0,-0.11438 0.684609,-0.42146 1.521354,-0.6824 2.410396,-0.75169 4.02986,-1.61056 5.990749,-3.17714 1.002959,-0.80127 1.912202,-1.40208 2.020541,-1.33512 0.49503,0.30594 0.748042,-0.58525 0.490975,-1.72937 -0.373118,-1.66063 -1.699496,-2.90557 -3.095632,-2.90557 -1.320112,0 -2.389458,1.77866 -1.570175,2.6117 0.265388,0.26984 0.200545,0.44261 -0.328204,0.87445 -0.917734,0.74954 -3.078921,1.81593 -3.277592,1.61726 -0.09048,-0.0905 -0.164516,-0.0176 -0.164516,0.16199 0,0.21252 -0.196312,0.2642 -0.5623,0.14804 -0.403759,-0.12814 -0.506317,-0.0879 -0.363742,0.14281 0.144222,0.23336 0.03561,0.26956 -0.396875,0.13229 -0.432489,-0.13726 -0.541097,-0.10106 -0.396875,0.1323 0.142575,0.23069 0.04002,0.27095 -0.363741,0.1428 -0.355452,-0.11281 -0.5623,-0.0642 -0.5623,0.13226 0,0.17089 -0.164086,0.24775 -0.364635,0.17079 -0.200548,-0.0769 -0.498205,-0.006 -0.661458,0.1569 -0.163253,0.16326 -0.296824,0.2093 -0.296824,0.10231 0,-0.10698 -0.243768,-0.0641 -0.541708,0.0954 -0.661721,0.35414 -3.273189,0.55199 -7.660375,0.58035 -6.804671,0.044 -8.577346,-0.19127 -14.155207,-1.87864 -4.219727,-1.27651 -5.776203,-1.88233 -8.350218,-3.25011 -1.9452447,-1.03367 -2.0031504,-1.09312 -2.1069107,-2.1632 -0.2348521,-2.42203 0.2721952,-7.27448 0.8363461,-8.00383 0.1229156,-0.15891 0.1352196,-0.38636 0.027341,-0.50544 -0.1078781,-0.11909 -0.034558,-0.12299 0.1629336,-0.009 0.27792,0.16087 0.316584,0.0658 0.171072,-0.4206 -0.171901,-0.57462 -0.156986,-0.5879 0.174133,-0.15505 0.331835,0.43379 1.125563,0.48476 9.486219,0.6091 5.018245,0.0746 9.660366,0.19197 10.096929,0.26075 0.680445,0.10719 0.741789,0.38871 1.505293,1.97213 1.858997,3.85536 5.493333,6.05324 10.038552,6.07086 2.714428,0.0105 5.253109,-0.90019 7.296202,-2.61741 0.638714,-0.53684 2.237264,-2.71625 3.141349,-4.28282 l 0.703013,-1.21816 2.723455,-0.18457 c 2.348643,-0.15917 5.361075,-0.46178 10.925538,-1.09751 0.727604,-0.0831 2.156354,-0.21151 3.175,-0.28531 1.018646,-0.0738 2.903931,-0.25474 4.189523,-0.4021 1.285592,-0.14736 2.384368,-0.221 2.441723,-0.16364 0.05736,0.0574 0.298116,1.46613 0.535022,3.13062 0.744266,5.22912 0.180299,13.56841 -1.126161,16.65237 -0.09247,0.21828 -0.183036,0.51594 -0.201256,0.66146 -0.117033,0.93473 -1.078829,3.25523 -1.294083,3.12219 -0.143497,-0.0887 -0.183401,-0.0358 -0.08867,0.11743 0.216492,0.35029 -0.730357,2.51459 -0.98757,2.25737 -0.10406,-0.10406 -0.114171,0.006 -0.02247,0.2453 0.09965,0.25969 -0.04552,0.64676 -0.360842,0.96208 -0.290166,0.29016 -0.472549,0.5826 -0.405295,0.64985 0.06726,0.0673 -0.249919,0.75354 -0.70483,1.52507 -2.531492,4.29342 -6.935007,8.45931 -11.246806,10.63991 -3.180495,1.60846 -8.415817,2.3991 -13.350157,2.01614 z M 17.666652,165.40297 c -0.08994,-0.14552 -0.282584,-0.26458 -0.428105,-0.26458 -0.14552,0 -0.190998,0.11906 -0.101061,0.26458 0.08994,0.14552 0.282584,0.26458 0.428104,0.26458 0.145521,0 0.190999,-0.11906 0.101062,-0.26458 z m 110.750168,11.01386 c 0.27227,-0.24362 1.83003,-0.95949 1.83003,-0.84099 0,0.1524 -1.4668,0.93963 -1.75074,0.93963 -0.10425,0 -0.13992,-0.0444 -0.0793,-0.0986 z M 20.940195,175.2587 c -0.329108,-0.41964 -0.319749,-0.429 0.0999,-0.0999 0.440729,0.34564 0.580887,0.56291 0.363126,0.56291 -0.05494,0 -0.263302,-0.20836 -0.463021,-0.46302 z m 112.940275,-1.68648 c 0.17947,-0.18082 0.39297,-0.26211 0.47443,-0.18065 0.0815,0.0815 -0.0654,0.22941 -0.32632,0.32877 -0.37709,0.14358 -0.40748,0.11319 -0.14811,-0.14812 z m 3.24555,-1.67337 c 0,-0.0728 0.35719,-0.317 0.79375,-0.54275 0.43656,-0.22576 0.79375,-0.35094 0.79375,-0.27818 0,0.0728 -0.35719,0.317 -0.79375,0.54276 -0.43656,0.22575 -0.79375,0.35093 -0.79375,0.27817 z m 2.91042,-1.56904 c 0,-0.0626 0.62508,-0.4677 1.38906,-0.90022 0.76398,-0.43251 1.83555,-1.05095 2.38125,-1.37431 0.5457,-0.32335 0.99219,-0.53354 0.99219,-0.46709 0,0.14052 -2.64513,1.77982 -3.90261,2.41863 -0.47294,0.24025 -0.85989,0.3856 -0.85989,0.32299 z M 19.517268,168.57635 c -0.264197,-0.29193 -0.431478,-0.57793 -0.371737,-0.63555 0.05974,-0.0576 0.322539,0.18124 0.583994,0.53079 0.577423,0.77198 0.448952,0.83539 -0.212257,0.10476 z m 128.192082,-2.70861 c 0,-0.13092 2.6553,-1.96115 3.57188,-2.46201 0.29104,-0.15904 1.21377,-0.67127 2.05052,-1.13829 2.59325,-1.4474 1.67471,-0.71199 -1.45521,1.16508 -1.63711,0.98181 -3.24445,1.95957 -3.57187,2.17279 -0.32743,0.21323 -0.59532,0.33132 -0.59532,0.26243 z m 12.89403,-3.14343 c 0.17948,-0.18082 0.39297,-0.26212 0.47443,-0.18066 0.0815,0.0815 -0.0654,0.22941 -0.32632,0.32877 -0.37708,0.14358 -0.40747,0.11319 -0.14811,-0.14811 z m -5.3534,-1.46704 c 0.14552,-0.14391 1.27661,-0.91768 2.51354,-1.7195 1.23693,-0.80182 2.9038,-1.88318 3.70417,-2.40303 1.31882,-0.8566 6.23029,-3.47991 5.29166,-2.82638 -0.43431,0.3024 -9.35619,5.78304 -10.84791,6.66379 -0.50933,0.30072 -0.80698,0.42902 -0.66146,0.28512 z m 16.76729,-2.13815 c -0.32911,-0.41965 -0.31975,-0.429 0.0999,-0.0999 0.44073,0.34565 0.58089,0.56292 0.36313,0.56292 -0.0549,0 -0.2633,-0.20836 -0.46302,-0.46302 z m -1.88889,-2.48023 c 0.17948,-0.18082 0.39297,-0.26211 0.47443,-0.18065 0.0815,0.0815 -0.0654,0.2294 -0.32632,0.32876 -0.37708,0.14359 -0.40747,0.1132 -0.14811,-0.14811 z m -2.04611,-3.40675 c 0.21828,-0.14107 0.51594,-0.25648 0.66146,-0.25648 0.14552,0 0.086,0.11541 -0.13229,0.25648 -0.21829,0.14106 -0.51594,0.25648 -0.66146,0.25648 -0.14552,0 -0.086,-0.11542 0.13229,-0.25648 z m 1.05833,-0.38778 c 0,-0.20713 1.62053,-1.25489 1.74632,-1.12909 0.0706,0.0706 -0.29344,0.37722 -0.80898,0.6814 -0.51553,0.30417 -0.93734,0.50563 -0.93734,0.44769 z m -73.355723,-1.1302 c 0.763985,-0.0534 2.014141,-0.0534 2.778125,0 0.763985,0.0534 0.138906,0.0972 -1.389062,0.0972 -1.527969,0 -2.153047,-0.0437 -1.389063,-0.0972 z m -4.48138,-0.25026 c 0.190996,-0.0764 0.4192,-0.067 0.507118,0.0209 0.08792,0.0879 -0.06835,0.15045 -0.347265,0.13896 -0.308225,-0.0127 -0.370919,-0.0754 -0.159853,-0.15985 z m 9.243883,0.006 c 0.1819,-0.0734 0.47955,-0.0734 0.66146,0 0.1819,0.0734 0.0331,0.13345 -0.33073,0.13345 -0.36381,0 -0.51263,-0.06 -0.33073,-0.13345 z m 72.05914,-0.87829 c 0.64036,-0.43391 1.30461,-0.7911 1.47612,-0.79375 0.17151,-0.003 0.46916,-0.15503 0.66146,-0.33863 0.41249,-0.39383 1.83088,-1.05125 1.96935,-0.91278 0.10569,0.10569 -4.79237,2.8341 -5.0878,2.8341 -0.10088,0 0.34051,-0.35503 0.98087,-0.78894 z m -61.54196,-2.2965 c 0.14552,-0.14966 1.21348,-0.91564 2.37323,-1.70219 1.15976,-0.78654 2.94569,-2.1982 3.96875,-3.137 1.76756,-1.622 1.79066,-1.6344 0.46422,-0.24936 -0.76773,0.80166 -1.30351,1.5591 -1.19062,1.68319 0.11289,0.1241 0.0654,0.14553 -0.10554,0.0476 -0.17093,-0.0979 -0.70671,0.18653 -1.19062,0.63207 -0.53834,0.49565 -0.68327,0.73622 -0.37341,0.61979 0.36577,-0.13744 0.45019,-0.0993 0.30397,0.1373 -0.11135,0.18017 -0.38772,0.25649 -0.61414,0.1696 -0.22643,-0.0869 -0.83946,0.12299 -1.3623,0.46639 -1.69311,1.11203 -2.54408,1.61081 -2.27354,1.33258 z m 66.39484,-0.20726 c 0.28248,-0.22631 0.62974,-0.41147 0.7717,-0.41147 0.33617,0 0.18607,0.12221 -0.62383,0.50792 -0.6237,0.29704 -0.63214,0.29153 -0.14787,-0.0965 z m 9.27599,-4.38022 c 0.0899,-0.14552 0.28259,-0.26458 0.42811,-0.26458 0.14552,0 0.191,0.11906 0.10106,0.26458 -0.0899,0.14552 -0.28258,0.26458 -0.4281,0.26458 -0.14553,0 -0.191,-0.11906 -0.10107,-0.26458 z m -95.167309,-4.14949 c 0.190996,-0.0764 0.419199,-0.067 0.507118,0.0209 0.08792,0.0879 -0.06835,0.15045 -0.347266,0.13896 -0.308224,-0.0127 -0.370919,-0.0754 -0.159852,-0.15985 z m 2.695442,-0.80056 c 0.218281,-0.0802 0.813594,-0.32856 1.322917,-0.55196 1.089252,-0.47778 3.138656,-1.08539 3.704166,-1.09823 0.218282,-0.005 -0.792527,0.40651 -2.246242,0.91437 -1.453714,0.50785 -2.763402,0.91397 -2.910416,0.90248 -0.147015,-0.0115 -0.08871,-0.0865 0.129575,-0.16666 z M 52.765718,136.2993 c 0,-0.36381 0.06005,-0.51263 0.133453,-0.33073 0.0734,0.1819 0.0734,0.47955 0,0.66146 -0.0734,0.1819 -0.133453,0.0331 -0.133453,-0.33073 z m 131.298572,0.2237 c -0.12479,-0.20192 -0.0716,-0.23306 0.15682,-0.0919 0.21776,0.13458 0.49073,0.0274 0.73793,-0.28985 0.36376,-0.46677 0.38011,-0.46814 0.22445,-0.0188 -0.0923,0.26656 -0.16789,0.53445 -0.16789,0.59531 0,0.2478 -0.77596,0.0889 -0.95131,-0.19481 z m -81.91288,-0.14035 c 0.191,-0.0764 0.4192,-0.067 0.50712,0.0209 0.0879,0.0879 -0.0683,0.15045 -0.34726,0.13896 -0.30823,-0.0127 -0.37092,-0.0754 -0.15986,-0.15985 z m -91.496216,-0.27193 c 0,-0.35014 1.199515,-1.37536 0.537891,-0.47337 -0.213484,0.29104 -0.421843,0.57877 -0.463021,0.63941 -0.04118,0.0606 -0.07487,-0.0141 -0.07487,-0.16604 z m 93.612886,-0.25724 c 0.191,-0.0764 0.4192,-0.067 0.50712,0.0209 0.0879,0.0879 -0.0683,0.15045 -0.34727,0.13896 -0.30822,-0.0127 -0.37092,-0.0754 -0.15985,-0.15985 z m 1.5875,-0.26458 c 0.191,-0.0764 0.4192,-0.067 0.50712,0.0209 0.0879,0.0879 -0.0684,0.15045 -0.34727,0.13896 -0.30822,-0.0127 -0.37092,-0.0754 -0.15985,-0.15985 z m 13.3858,-0.043 c 0.134,-0.21681 -0.29568,-0.31999 -1.48047,-0.3555 l -1.66926,-0.05 1.55991,-0.0966 c 1.54268,-0.0956 2.38561,0.1991 1.72955,0.60457 -0.21177,0.13087 -0.26142,0.0945 -0.13973,-0.10243 z m -11.81484,-0.21611 c 0.1819,-0.0734 0.47956,-0.0734 0.66146,0 0.1819,0.0734 0.0331,0.13345 -0.33073,0.13345 -0.3638,0 -0.51263,-0.06 -0.33073,-0.13345 z m 3.30729,-0.27174 c 0.25467,-0.0666 0.67139,-0.0666 0.92605,0 0.25466,0.0666 0.0463,0.121 -0.46302,0.121 -0.50933,0 -0.71769,-0.0545 -0.46303,-0.121 z m 69.41423,-0.56727 c -0.0749,-0.12127 0.0319,-0.22049 0.23733,-0.22049 0.20548,0 0.31228,0.0992 0.23733,0.22049 -0.0749,0.12127 -0.18174,0.22049 -0.23733,0.22049 -0.0556,0 -0.16238,-0.0992 -0.23733,-0.22049 z m -8.62621,-0.4471 c -0.37923,-0.22031 -1.24002,-0.36689 -2.01745,-0.34356 -1.24731,0.0374 -1.5972,-0.10785 -4.36562,-1.81269 -5.96142,-3.67113 -9.18044,-5.7806 -7.43453,-4.87193 0.85115,0.44298 2.52216,0.63358 2.29217,0.26145 -0.12344,-0.19973 0.001,-0.19446 0.39567,0.0168 0.31667,0.16947 0.71799,0.25732 0.89183,0.1952 0.17383,-0.0621 1.38762,0.62757 2.69731,1.53262 1.30969,0.90504 3.7207,2.44799 5.35781,3.42875 1.63711,0.98077 2.97656,1.83119 2.97656,1.88981 0,0.15269 -0.0579,0.13108 -0.79375,-0.2964 z m -60.92031,-0.83064 c 0.1819,-0.0734 0.47956,-0.0734 0.66146,0 0.1819,0.0734 0.0331,0.13345 -0.33073,0.13345 -0.3638,0 -0.51263,-0.06 -0.33073,-0.13345 z m 7.40834,0 c 0.1819,-0.0734 0.47955,-0.0734 0.66145,0 0.18191,0.0734 0.0331,0.13345 -0.33072,0.13345 -0.36381,0 -0.51263,-0.06 -0.33073,-0.13345 z m 68.59322,-0.35394 c 0.15576,-0.29104 0.34273,-0.52916 0.41549,-0.52916 0.0728,0 0.005,0.23812 -0.1509,0.52916 -0.15577,0.29104 -0.34274,0.52917 -0.4155,0.52917 -0.0728,0 -0.005,-0.23813 0.15091,-0.52917 z m 1.05834,-1.85208 c 0.29695,-0.58208 0.59945,-1.05833 0.67221,-1.05833 0.0728,0 -0.11067,0.47625 -0.40763,1.05833 -0.29696,0.58208 -0.59945,1.05833 -0.67221,1.05833 -0.0728,0 0.11067,-0.47625 0.40763,-1.05833 z m 1.02435,-1.71967 c 0.14288,-0.29104 0.45367,-0.76729 0.69065,-1.05833 l 0.43085,-0.52917 -0.25979,0.52917 c -0.14288,0.29104 -0.45368,0.76729 -0.69065,1.05833 l -0.43086,0.52916 z m -18.58411,-0.60476 c -0.0707,-0.11434 0.0922,-0.20789 0.36184,-0.20789 0.26967,0 0.4325,0.0935 0.36183,0.20789 -0.0707,0.11433 -0.23349,0.20788 -0.36183,0.20788 -0.12835,0 -0.29117,-0.0935 -0.36184,-0.20788 z m 20.0733,-1.90878 c 0.22575,-0.43657 0.46999,-0.79375 0.54275,-0.79375 0.0728,0 -0.0524,0.35718 -0.27817,0.79375 -0.22576,0.43656 -0.47,0.79375 -0.54276,0.79375 -0.0728,0 0.0524,-0.35719 0.27818,-0.79375 z m -35.12544,-1.03559 c -1.08735,-0.69706 -1.238,-0.94253 -0.27936,-0.45515 0.46371,0.23575 0.91723,0.54855 1.0078,0.69511 0.21217,0.34329 0.14877,0.3224 -0.72844,-0.23996 z m -3.5193,-2.02172 c -0.49319,-0.39512 -0.48995,-0.40001 0.0817,-0.12298 0.32742,0.15867 0.59531,0.34383 0.59531,0.41147 0,0.20247 -0.13721,0.144 -0.67703,-0.28849 z m 41.15039,-0.89671 c 0.15143,-0.28293 0.40609,-0.59525 0.56592,-0.69403 0.15983,-0.0988 0.086,0.13271 -0.16414,0.51443 -0.5296,0.80826 -0.80384,0.93086 -0.40178,0.1796 z m -44.24367,-0.69523 c -0.98913,-0.53662 -0.92892,-0.76011 0.0661,-0.24554 0.43657,0.22575 0.79375,0.46693 0.79375,0.53596 0,0.17026 -0.0284,0.16065 -0.85989,-0.29042 z m -1.52136,-0.907 c -0.23846,-0.15411 -0.2711,-0.2581 -0.0818,-0.26053 0.17332,-0.002 0.3887,0.11501 0.47864,0.26053 0.20301,0.32848 0.11142,0.32848 -0.39688,0 z m 47.3867,-0.79375 c 0.16592,-0.3638 0.73829,-1.19724 1.27194,-1.85209 0.53365,-0.65484 1.43897,-1.84546 2.01184,-2.64583 0.57286,-0.80036 1.24809,-1.60729 1.5005,-1.79318 0.25242,-0.18588 0.39628,-0.50126 0.31969,-0.70084 -0.0766,-0.19958 -0.0134,-0.44063 0.14035,-0.53567 0.17638,-0.10901 0.2147,-0.004 0.10382,0.28526 -0.15694,0.40896 -0.10079,0.40334 0.52388,-0.0524 0.38481,-0.28075 0.70339,-0.59975 0.70797,-0.70889 0.005,-0.10914 0.1537,-0.19844 0.3314,-0.19844 0.17769,0 -0.40218,0.74414 -1.28862,1.65365 -1.41686,1.45373 -4.63737,5.32508 -5.58831,6.71766 -0.28464,0.41683 -0.28992,0.3909 -0.0345,-0.16922 z m -50.1804,-0.67606 c -0.49319,-0.39512 -0.48994,-0.40001 0.0817,-0.12298 0.32743,0.15867 0.59532,0.34383 0.59532,0.41147 0,0.20247 -0.13722,0.144 -0.67704,-0.28849 z m -4.48046,-2.23134 c -0.0927,-0.14998 0.0135,-0.19434 0.24896,-0.10398 0.45837,0.17589 0.54224,0.36553 0.16165,0.36553 -0.13693,0 -0.32171,-0.11769 -0.41061,-0.26155 z m -0.92792,-0.5322 c -0.23847,-0.15411 -0.2711,-0.25809 -0.0818,-0.26053 0.17331,-0.002 0.3887,0.11501 0.47864,0.26053 0.20301,0.32849 0.11142,0.32849 -0.39688,0 z m 5.1438,-0.14688 c -0.49319,-0.39513 -0.48994,-0.40002 0.0817,-0.12299 0.32742,0.15867 0.59531,0.34383 0.59531,0.41147 0,0.20247 -0.13721,0.144 -0.67703,-0.28848 z m -7.26047,-0.91145 c -0.23846,-0.15411 -0.2711,-0.2581 -0.0818,-0.26053 0.17332,-0.002 0.3887,0.11501 0.47864,0.26053 0.20302,0.32849 0.11142,0.32849 -0.39688,0 z m 59.53125,-1.15822 c 0,-0.0549 0.20836,-0.2633 0.46302,-0.46302 0.41965,-0.32911 0.429,-0.31975 0.0999,0.0999 -0.34565,0.44073 -0.56292,0.58088 -0.56292,0.36312 z m -57.01583,-0.42624 c -0.0927,-0.14998 0.0135,-0.19434 0.24897,-0.10398 0.45837,0.17589 0.54223,0.36553 0.16165,0.36553 -0.13694,0 -0.32171,-0.11769 -0.41062,-0.26155 z m -8.07167,-1.06136 c -0.23846,-0.15411 -0.2711,-0.2581 -0.0818,-0.26053 0.17332,-0.002 0.3887,0.11501 0.47864,0.26053 0.20302,0.32848 0.11142,0.32848 -0.39688,0 z m 66.54271,-0.26459 c 0.26339,-0.29104 0.53842,-0.52916 0.61118,-0.52916 0.0728,0 -0.0832,0.23812 -0.3466,0.52916 -0.26339,0.29105 -0.53842,0.52917 -0.61118,0.52917 -0.0728,0 0.0832,-0.23812 0.3466,-0.52917 z m -67.86562,-0.26458 c -0.21828,-0.14106 -0.27781,-0.25648 -0.13229,-0.25648 0.14552,0 0.44317,0.11542 0.66145,0.25648 0.21829,0.14106 0.27782,0.25648 0.1323,0.25648 -0.14552,0 -0.44318,-0.11542 -0.66146,-0.25648 z m 6.48416,0.003 c -0.0927,-0.14998 0.0135,-0.19434 0.24897,-0.10398 0.45837,0.17589 0.54223,0.36553 0.16165,0.36553 -0.13693,0 -0.32171,-0.11769 -0.41062,-0.26155 z m -8.86541,-1.06133 c -0.80037,-0.42283 -1.3803,-0.7744 -1.28875,-0.78127 0.24494,-0.0184 3.14083,1.32973 3.14083,1.46212 0,0.22848 -0.43014,0.0704 -1.85208,-0.68085 z m 75.27395,-1.05834 c 1.01687,-1.03239 1.19099,-1.32291 0.79284,-1.32291 -0.39177,0 -0.17814,-0.33622 0.92049,-1.44866 0.78687,-0.79677 1.494,-1.38533 1.57141,-1.30793 0.0774,0.0774 -0.3621,0.6192 -0.97669,1.20398 -1.30164,1.23851 -1.53141,2.02329 -0.25753,0.87959 0.47295,-0.42461 -0.0301,0.14843 -1.11785,1.27341 -1.08777,1.12499 -2.03579,2.04544 -2.10672,2.04544 -0.0709,0 0.45739,-0.59531 1.17405,-1.32292 z m -77.6552,0 c -0.21828,-0.14106 -0.27781,-0.25648 -0.13229,-0.25648 0.14552,0 0.44317,0.11542 0.66145,0.25648 0.21829,0.14107 0.27782,0.25648 0.1323,0.25648 -0.14552,0 -0.44318,-0.11541 -0.66146,-0.25648 z m -1.5875,-0.52916 c -0.48365,-0.31256 -0.0659,-0.31256 0.66146,0 0.34891,0.14993 0.39398,0.23234 0.13229,0.24193 -0.21828,0.008 -0.57547,-0.10087 -0.79375,-0.24193 z m 77.6552,-0.52917 c 0.26339,-0.29104 0.53842,-0.52917 0.61118,-0.52917 0.0728,0 -0.0832,0.23813 -0.34659,0.52917 -0.26339,0.29104 -0.53842,0.52917 -0.61118,0.52917 -0.0728,0 0.0832,-0.23813 0.34659,-0.52917 z m -78.97812,0 c -0.21828,-0.14106 -0.27781,-0.25648 -0.13229,-0.25648 0.14552,0 0.44318,0.11542 0.66146,0.25648 0.21828,0.14107 0.27781,0.25648 0.13229,0.25648 -0.14552,0 -0.44318,-0.11541 -0.66146,-0.25648 z m 7.80708,0.003 c -0.0927,-0.14998 0.0135,-0.19434 0.24897,-0.10398 0.45837,0.17589 0.54223,0.36553 0.16165,0.36553 -0.13693,0 -0.32171,-0.11769 -0.41062,-0.26155 z m -9.12999,-0.5322 c -0.21829,-0.14106 -0.27782,-0.25648 -0.1323,-0.25648 0.14552,0 0.44318,0.11542 0.66146,0.25648 0.21828,0.14107 0.27781,0.25648 0.13229,0.25648 -0.14552,0 -0.44317,-0.11541 -0.66145,-0.25648 z m -1.7198,-0.52916 c -0.33354,-0.14333 -0.38245,-0.22739 -0.13229,-0.22739 0.21828,0 0.635,0.10232 0.92604,0.22739 0.33355,0.14333 0.38245,0.22739 0.1323,0.22739 -0.21829,0 -0.635,-0.10233 -0.92605,-0.22739 z m -2.24895,-0.79375 c -0.65485,-0.27478 -1.01204,-0.49743 -0.79375,-0.49476 0.4447,0.005 2.66408,0.98193 2.24895,0.98952 -0.14552,0.003 -0.80036,-0.21998 -1.4552,-0.49476 z m 89.56145,-0.52917 c 0.26339,-0.29104 0.53842,-0.52917 0.61118,-0.52917 0.0728,0 -0.0832,0.23813 -0.3466,0.52917 -0.26339,0.29104 -0.53842,0.52917 -0.61118,0.52917 -0.0728,0 0.0832,-0.23813 0.3466,-0.52917 z m -91.81041,-0.26458 c -0.34892,-0.14994 -0.39398,-0.23235 -0.13229,-0.24194 0.21828,-0.008 0.57546,0.10087 0.79375,0.24194 0.48364,0.31256 0.0659,0.31256 -0.66146,0 z m 91.52827,-1.08675 c -0.18786,-0.30396 3.27715,-2.41354 3.61813,-2.20281 0.19393,0.11986 0.24852,0.0845 0.14016,-0.0909 -0.0976,-0.15795 -0.0565,-0.36197 0.0914,-0.45337 0.48033,-0.29686 0.28479,0.38153 -0.41458,1.43835 -0.90879,1.37329 -1.71616,1.72811 -0.9404,0.41329 0.30124,-0.51055 0.46242,-0.92448 0.35818,-0.91985 -0.3385,0.015 -0.98101,0.64483 -1.07115,1.04996 -0.14523,0.6527 -0.57745,1.02511 -1.1405,0.98269 -0.2924,-0.022 -0.58097,-0.11985 -0.64125,-0.2174 z m 1.22802,-0.30893 c -0.0327,-0.31636 -0.39562,-0.25509 -0.50932,0.086 -0.0582,0.17463 0.037,0.26988 0.21167,0.21167 0.17462,-0.0582 0.30857,-0.19216 0.29765,-0.29766 z M 50.085771,102.17789 c -0.214067,-0.13538 -0.309033,-0.32632 -0.211036,-0.42432 0.098,-0.098 0.370943,0.0146 0.606548,0.2502 0.465538,0.46554 0.229556,0.56943 -0.395512,0.17412 z m 66.528749,-3.568434 c 0.96519,-0.647236 1.91626,-1.114871 2.11349,-1.03919 0.19722,0.07568 0.75628,-0.05537 1.24236,-0.291224 0.81257,-0.394274 0.84114,-0.394332 0.35461,-7.23e-4 -0.6378,0.515987 -4.73959,2.507929 -5.16431,2.507929 -0.16558,0 0.48865,-0.529556 1.45385,-1.176792 z m -20.565059,0.73698 c 0.181901,-0.0734 0.479557,-0.0734 0.661458,0 0.181901,0.0734 0.03307,0.133453 -0.330729,0.133453 -0.363802,0 -0.51263,-0.06005 -0.330729,-0.133453 z m -2.10013,-0.270095 c 0.190996,-0.07643 0.419199,-0.06703 0.507118,0.02089 0.08792,0.08792 -0.06835,0.150453 -0.347266,0.138964 -0.308225,-0.0127 -0.370919,-0.07539 -0.159852,-0.159852 z M 67.755582,98.547234 c 0.190996,-0.07643 0.419199,-0.06703 0.507118,0.02089 0.08792,0.08792 -0.06835,0.150453 -0.347266,0.138965 -0.308224,-0.0127 -0.370919,-0.07539 -0.159852,-0.159853 z m 21.150129,-0.006 c 0.327422,-0.06306 0.863203,-0.06306 1.190625,0 0.327422,0.06306 0.05953,0.114662 -0.595312,0.114662 -0.654844,0 -0.922735,-0.0516 -0.595313,-0.114662 z M 50.876038,97.900008 c 0.176855,-0.344983 1.534693,-1.817866 3.017416,-3.273075 1.482723,-1.455208 3.157697,-3.241145 3.722165,-3.968749 1.42008,-1.830496 7.330886,-7.804467 7.573555,-7.654489 0.109012,0.06737 0.284357,-0.0169 0.389657,-0.187284 0.130934,-0.211856 0.07399,-0.238983 -0.180155,-0.08582 -0.316492,0.190743 -0.31775,0.157563 -0.0085,-0.223703 0.19972,-0.246215 0.579646,-0.447664 0.844281,-0.447664 0.264636,0 0.566109,-0.137459 0.669942,-0.305464 0.127416,-0.206162 0.06798,-0.234383 -0.182822,-0.08681 -0.204386,0.120259 -0.144797,-0.03994 0.132418,-0.355995 0.538878,-0.61438 0.949308,-0.813122 0.458894,-0.22221 -0.217971,0.262639 -0.187015,0.481733 0.121494,0.859896 0.299528,0.367153 0.378417,0.391632 0.285326,0.08853 -0.0737,-0.239962 0.02513,-0.418923 0.231345,-0.418923 0.198006,0 0.29869,0.09922 0.223743,0.220486 -0.07495,0.121267 -0.01018,0.220486 0.14393,0.220486 0.154109,0 0.28394,-0.0893 0.288513,-0.198438 0.0046,-0.10914 0.272463,-0.390762 0.595312,-0.625825 0.322849,-0.235063 -2.352186,2.503374 -5.944523,6.085417 -3.592337,3.582042 -7.084243,6.929522 -7.759792,7.438845 -0.675549,0.509323 -1.665427,1.255157 -2.199729,1.657408 -0.534301,0.402251 -1.209582,0.946248 -1.500624,1.208882 -0.98644,0.890155 -1.282706,0.978371 -0.921862,0.274493 z m 18.979674,0.388155 c 0.181901,-0.0734 0.479557,-0.0734 0.661458,0 0.181901,0.0734 0.03307,0.133452 -0.330729,0.133452 -0.363802,0 -0.51263,-0.06005 -0.330729,-0.133452 z m 16.668749,-0.0115 c 0.327422,-0.06306 0.863203,-0.06306 1.190625,0 0.327422,0.06306 0.05953,0.114663 -0.595312,0.114663 -0.654844,0 -0.922735,-0.0516 -0.595313,-0.114663 z M 73.431225,98.008948 c 0.402183,-0.06082 0.997495,-0.05919 1.322916,0.0036 0.325421,0.0628 -0.0036,0.11256 -0.731242,0.110574 -0.727604,-0.002 -0.993857,-0.05337 -0.591674,-0.114186 z m 4.216312,-0.0069 c 1.265947,-0.04839 3.409071,-0.04862 4.7625,-5.04e-4 1.353428,0.04812 0.317654,0.08771 -2.301721,0.08799 -2.619375,2.78e-4 -3.726726,-0.03909 -2.460779,-0.08749 z M 118.86977,97.20412 c 0,-0.110517 0.26789,-0.365507 0.59531,-0.566646 0.5932,-0.364409 0.59353,-0.363695 0.0913,0.200938 -0.53924,0.606237 -0.6866,0.684723 -0.6866,0.365708 z m 2.64584,-0.706485 c 0,-0.07276 0.23812,-0.259733 0.52916,-0.415493 0.29104,-0.155761 0.52917,-0.22367 0.52917,-0.15091 0,0.07276 -0.23813,0.259732 -0.52917,0.415493 -0.29104,0.155761 -0.52916,0.22367 -0.52916,0.15091 z m 1.32291,-0.827705 c 0,-0.05685 0.35719,-0.288075 0.79375,-0.51383 0.43656,-0.225755 0.79375,-0.589737 0.79375,-0.808848 0,-0.219112 0.18858,-0.470748 0.41906,-0.559193 0.29387,-0.112766 0.32722,-0.217567 0.11165,-0.350797 -0.17629,-0.108954 0.8017,-0.65652 2.29292,-1.283788 2.85015,-1.198882 7.2656,-2.739052 7.41737,-2.587281 0.0527,0.05271 -0.63956,0.472222 -1.53838,0.932246 -0.89881,0.460024 -2.07423,1.184911 -2.61204,1.610861 -0.84972,0.672995 -7.67808,3.839574 -7.67808,3.56063 z m 0.52917,-1.553545 c 0,-0.07276 0.23812,-0.259732 0.52917,-0.415493 0.29104,-0.155761 0.52916,-0.22367 0.52916,-0.15091 0,0.07276 -0.23812,0.259732 -0.52916,0.415493 -0.29105,0.155761 -0.52917,0.22367 -0.52917,0.15091 z M 96.244171,93.067839 c 1.126358,-1.476733 2.577009,-2.605667 2.834514,-2.205892 0.223726,0.347334 -0.382888,0.942685 -2.416501,2.371634 l -1.173214,0.824377 z m -9.934269,-0.318115 c 0.941494,-1.246348 4.101176,-4.299848 4.313551,-4.168593 0.129632,0.08012 0.415196,-0.07461 0.634587,-0.343848 0.21939,-0.269234 0.323504,-0.340688 0.231364,-0.158787 -0.189166,0.373448 0.281491,0.460413 0.508026,0.09387 0.08051,-0.130272 -0.03907,-0.308025 -0.265738,-0.395006 -0.226669,-0.08698 -0.33682,-0.279993 -0.244781,-0.428915 0.09204,-0.148922 0.276815,-0.203111 0.410614,-0.120418 0.13454,0.08315 0.165401,-0.05258 0.06905,-0.303671 -0.122221,-0.318503 -0.07696,-0.393907 0.151643,-0.252624 0.179227,0.110768 0.43958,0.500486 0.578564,0.86604 0.225543,0.593224 0.120077,0.78237 -0.981492,1.760236 -1.484391,1.317698 -5.945074,4.166156 -5.405384,3.451716 z M 68.899106,90.062871 c 2.113824,-3.108025 6.089333,-7.427325 7.950322,-8.637843 0.558633,-0.363375 0.826374,-0.399389 1.25677,-0.169048 0.3008,0.160984 0.546909,0.384968 0.546909,0.497744 0,0.263153 -1.587862,1.893002 -1.844236,1.893002 -0.296646,0 -1.528421,1.239779 -3.686532,3.710488 -2.599019,2.975483 -2.713606,3.077809 -3.685646,3.291305 -0.460763,0.101201 -0.837752,0.293604 -0.837752,0.427562 0,0.133959 -0.124782,0.243561 -0.277294,0.243561 -0.152512,0 0.107345,-0.565547 0.577459,-1.256771 z m 9.489418,0.827575 c 0,-0.241516 3.858884,-4.6834 4.798909,-5.523929 0.718885,-0.642794 0.786332,-0.667954 0.35465,-0.132291 -0.475974,0.590623 -0.535376,0.828051 -0.421579,1.685048 0.01679,0.126413 0.477004,-0.106595 1.022707,-0.517795 0.545703,-0.4112 -0.124105,0.437872 -1.488463,1.886826 -2.110169,2.241008 -2.613988,2.642675 -3.373438,2.689455 -0.491032,0.03025 -0.892786,-0.009 -0.892786,-0.08731 z m 7.206367,-5.719639 c 0.183842,-0.392168 0.377843,-0.586169 0.431114,-0.431113 0.05327,0.155056 -0.09714,0.475921 -0.334257,0.713034 -0.398429,0.398429 -0.405773,0.377056 -0.09686,-0.281921 z m 0.06967,-1.259498 c -0.08994,-0.145521 -0.03743,-0.264583 0.116677,-0.264583 0.154109,0 0.280198,0.119062 0.280198,0.264583 0,0.145521 -0.0525,0.264583 -0.116676,0.264583 -0.06417,0 -0.190262,-0.119062 -0.280199,-0.264583 z m -17.85937,-3.274895 c 0,-0.05494 0.20836,-0.263301 0.463021,-0.46302 0.419644,-0.329108 0.429002,-0.31975 0.09989,0.09989 -0.345644,0.44073 -0.562916,0.580887 -0.562916,0.363126 z m 2.778125,-0.429271 c 0.263389,-0.291042 0.538421,-0.529167 0.611181,-0.529167 0.07276,0 -0.08321,0.238125 -0.346598,0.529167 -0.263389,0.291041 -0.53842,0.529166 -0.61118,0.529166 -0.07276,0 0.08321,-0.238125 0.346597,-0.529166 z m -0.661458,-1.162318 c 0,-0.05719 0.184777,-0.17489 0.410617,-0.261553 0.235459,-0.09035 0.341662,-0.046 0.248968,0.103985 -0.155379,0.251408 -0.659585,0.371858 -0.659585,0.157568 z"
       id="path11967"
       sodipodi:nodetypes="ssssssssscsscscssssssssssssscsscssssssssssssssscssscscccsssssssscsssscssscsssssssssssssscsccsssssssssscssccsscccssssssssscssscsssssssccsscscssscsssssssssssssssssssssssccscsssssscsscssssscssssssssscscssssccsssssssssssssssssssssssssssssssssssssssssssssssssssssssssssssssssssscsscssssscsscscsssscsssssssssscccssccsssssssssscscsscsssscssssccsssssssssssssssssssssccssscssccsscssssssssssssssssscssccssccscscssssssscsscscscscsssssssssssssssssscssccccsccsssssscscssssssssssssssccsccsssssccsccssssssssccsccsssssssssssssssssssssssssssssssssssssssssssssssssssssssssssssccsssssssssscssssssssccsssssssssssssssssssssssssssssssssssssssssssssssssscssssssssssssssssssssssssssssssssssssssssssssssssssssscssssssssssssssssssssssssssssssssssssssssssssssssssssssssss" /><path
       style="display:inline;opacity:1;fill:#279cc4"
       d="m 86.06144,202.73884 c -4.516592,-1.45764 -8.061759,-3.35965 -11.846648,-6.35582 -1.300123,-1.0292 -2.970018,-2.99596 -2.970018,-3.49802 0,-0.25894 2.311543,0.005 2.96273,0.33779 0.247054,0.1264 0.645575,0.55639 0.885602,0.95552 1.042175,1.733 6.538795,5.06309 9.654808,5.8493 1.968746,0.49673 1.977651,0.50301 2.819017,1.98683 0.464218,0.81869 0.821405,1.47991 0.79375,1.46937 -0.02765,-0.0105 -1.062314,-0.34578 -2.299241,-0.74497 z m -3.307291,-6.586 c -1.018646,-0.54241 -2.533611,-1.47569 -3.366589,-2.07395 l -1.514505,-1.08776 2.506188,-0.18396 c 1.378403,-0.10119 2.627742,-0.10885 2.776307,-0.017 0.331654,0.20498 1.579581,2.6347 1.865829,3.63279 0.278247,0.97019 -3.23e-4,0.937 -2.26723,-0.27009 z m 54.504161,-0.34556 c -3.33009,-0.71675 -8.78602,-2.47291 -11.76925,-3.78829 -2.45351,-1.08182 -7.60056,-4.32151 -8.54581,-5.37896 -0.4607,-0.51539 -0.44172,-0.53999 0.8428,-1.09258 0.72276,-0.31092 1.41957,-0.56531 1.54846,-0.56531 0.12889,0 0.76709,0.51045 1.41822,1.13435 3.04825,2.92073 9.05846,5.76804 14.38892,6.81668 1.77144,0.34848 2.70619,0.78595 5.02708,2.3527 l 1.5875,1.07167 -1.05833,-0.0189 c -0.58209,-0.0104 -2.1299,-0.2495 -3.43959,-0.53139 z m -4.63021,-5.91336 c -2.78985,-1.01336 -3.63457,-1.42435 -6.04567,-2.94146 -2.49878,-1.57228 -4.58025,-3.29248 -3.98643,-3.29453 0.20615,-7.1e-4 1.18571,-0.41743 2.17681,-0.92604 0.9911,-0.50862 1.9436,-0.92371 2.11667,-0.92244 0.17307,0.001 0.78165,0.72707 1.35242,1.61288 0.57076,0.88581 2.22043,2.8493 3.66594,4.36331 1.44552,1.51401 2.58587,2.7483 2.53413,2.74285 -0.0517,-0.005 -0.86798,-0.291 -1.81387,-0.63457 z m -65.881242,-1.10986 c -5.133228,-0.41465 -7.946386,-0.88223 -14.155208,-2.35281 -3.089458,-0.73174 -4.184924,-1.23821 -4.051079,-1.87296 0.08408,-0.39873 5.983913,-2.53943 6.366183,-2.3099 0.109141,0.0655 0.198438,-0.003 0.198438,-0.15275 0,-0.14954 0.17759,-0.20375 0.394645,-0.12046 0.225006,0.0864 0.464386,-0.0303 0.556891,-0.27136 0.08924,-0.23255 0.268832,-0.35694 0.399105,-0.27642 0.130272,0.0805 0.236859,0.0133 0.236859,-0.14943 0,-0.1627 0.119062,-0.22223 0.264583,-0.13229 0.145521,0.0899 0.264584,0.0304 0.264584,-0.13229 0,-0.1627 0.137124,-0.21107 0.304721,-0.10749 0.167597,0.10358 0.454411,-0.0164 0.637364,-0.26658 0.182953,-0.25021 0.37325,-0.42952 0.422882,-0.39848 0.24482,0.15313 1.268624,-0.35612 1.138674,-0.56639 -0.08261,-0.13366 0.05389,-0.16431 0.304145,-0.0683 0.332418,0.12756 0.396014,0.0804 0.237445,-0.1762 -0.141735,-0.22933 -0.114154,-0.28713 0.07981,-0.16725 0.163014,0.10075 0.746957,-0.0457 1.297651,-0.32535 0.940454,-0.47765 1.153911,-0.48662 3.514803,-0.14778 2.280982,0.32738 14.470131,0.97142 14.807554,0.7824 0.07777,-0.0436 1.986872,-0.15537 4.242445,-0.24845 14.825946,-0.61179 18.074437,-1.06346 31.617707,-4.39613 5.90179,-1.45228 8.69418,-2.33705 16.93334,-5.3653 7.84728,-2.88422 20.50045,-9.22352 30.0302,-15.04529 1.52797,-0.93344 4.86172,-2.87332 7.40834,-4.31085 2.54661,-1.43753 5.28505,-2.99619 6.08541,-3.46369 2.8215,-1.64806 5.50811,-2.99509 5.66357,-2.83963 0.0865,0.0865 0.15727,-0.0341 0.15727,-0.26809 0,-0.23395 0.1316,-0.50669 0.29244,-0.6061 0.83723,-0.51743 5.05466,-0.70761 5.48558,-0.24736 0.15708,0.16777 0.0501,0.45821 -0.29226,0.79375 -0.29699,0.29104 -0.44558,0.36489 -0.33021,0.16411 0.13551,-0.23583 0.096,-0.32715 -0.11149,-0.25797 -0.17669,0.0589 -0.28256,0.19111 -0.23526,0.29381 0.14319,0.31095 -1.0833,1.03509 -1.41057,0.83283 -0.17521,-0.10829 -0.23358,-0.0729 -0.13716,0.0831 0.21227,0.34347 -2.07938,1.24059 -2.50194,0.97943 -0.18797,-0.11617 -0.24146,-0.0789 -0.13471,0.0938 0.21429,0.34674 -0.75941,0.70042 -1.1921,0.433 -0.171,-0.10568 -0.23715,-0.0759 -0.14882,0.067 0.19756,0.31966 -2.5822,1.71401 -3.0552,1.5325 -0.18949,-0.0727 -0.57924,0.0556 -0.8661,0.2851 -0.50521,0.40421 -0.50289,0.40825 0.0737,0.12882 0.32742,-0.15867 0.59532,-0.22719 0.59532,-0.15226 0,0.0749 -0.50602,0.3821 -1.12448,0.68263 -0.8422,0.40924 -0.99164,0.43487 -0.59532,0.10207 l 0.52917,-0.44433 -0.52917,0.1979 c -0.29104,0.10885 -0.74426,0.25958 -1.00715,0.33495 -0.26877,0.0771 -0.41732,0.29512 -0.3394,0.4982 0.0873,0.22749 -0.24989,0.55933 -0.91107,0.89665 -1.33309,0.68009 -1.38094,0.4544 -0.0575,-0.27111 0.6818,-0.37376 0.78526,-0.49127 0.33073,-0.37565 -1.00971,0.25686 -1.89029,0.89563 -1.68734,1.224 0.1095,0.17718 0.0612,0.21941 -0.12177,0.10635 -0.16685,-0.10312 -0.51267,-0.053 -0.76848,0.11139 -0.43982,0.28262 -0.43993,0.29105 -0.002,0.15492 0.85139,-0.26472 0.47771,0.0351 -1.45521,1.16756 -1.05502,0.61812 -2.32626,1.36881 -2.82497,1.66819 -0.4987,0.29937 -0.81817,0.40101 -0.70992,0.22586 0.18766,-0.30364 -4.11179,1.84264 -4.79657,2.39445 -0.1803,0.14528 -0.26765,0.3615 -0.19412,0.48048 0.0735,0.11897 -0.006,0.30247 -0.17608,0.40777 -0.20766,0.12834 -0.23839,0.0759 -0.0932,-0.15897 0.15517,-0.25107 0.0975,-0.30472 -0.20356,-0.1892 -0.94197,0.36146 -2.58681,1.55099 -2.45024,1.77198 0.0805,0.13025 0.007,0.32297 -0.16341,0.42827 -0.20464,0.12648 -0.23851,0.0761 -0.0998,-0.14833 0.14086,-0.22791 0.089,-0.29582 -0.15756,-0.20624 -0.20215,0.0734 -0.33922,0.2632 -0.30458,0.42167 0.0346,0.15848 -0.10215,0.22477 -0.30397,0.14733 -0.20182,-0.0774 -0.45691,0.005 -0.56687,0.18269 -0.13628,0.2205 -0.0897,0.25535 0.14641,0.10945 0.23089,-0.1427 0.28252,-0.11079 0.15489,0.0957 -0.1053,0.17038 -0.30446,0.23994 -0.44258,0.15458 -0.23657,-0.14621 -2.09356,0.8382 -2.09356,1.1098 0,0.0695 0.14882,0.0509 0.33073,-0.0412 0.93413,-0.47317 -0.9732,0.84842 -2.57969,1.78748 -1.01865,0.59544 -2.11998,1.25511 -2.4474,1.46594 -0.32742,0.21083 -0.59531,0.31399 -0.59531,0.22926 0,-0.0847 1.13109,-0.81975 2.51354,-1.63337 2.72653,-1.60464 3.46655,-2.26083 0.99219,-0.87979 -0.83675,0.46702 -1.75948,0.97925 -2.05052,1.13829 -1.52282,0.83213 -4.50079,3.02817 -3.24115,2.39011 0.1819,-0.0921 0.096,0.0225 -0.19084,0.25481 -0.28687,0.23228 -0.67001,0.36537 -0.85143,0.29576 -0.18141,-0.0696 -0.41158,0.006 -0.51149,0.16733 -0.1165,0.1885 -0.0484,0.22477 0.18997,0.10112 0.20438,-0.10604 0.1369,-0.003 -0.14997,0.22954 -0.28687,0.23228 -0.67001,0.36537 -0.85142,0.29576 -0.18142,-0.0696 -0.41159,0.006 -0.51149,0.16733 -0.11,0.17797 -0.0612,0.21944 0.12381,0.10512 0.16801,-0.10383 0.30547,-0.12642 0.30547,-0.0502 0,0.0762 -0.2525,0.27373 -0.5611,0.43889 -0.44914,0.24037 -0.51835,0.23113 -0.34687,-0.0463 0.11782,-0.19063 -0.25477,-0.0688 -0.82797,0.2708 -0.5732,0.33958 -1.66727,0.9713 -2.43125,1.40381 -1.63094,0.92333 -1.86189,1.25244 -0.33073,0.4713 0.58208,-0.29696 1.05833,-0.47998 1.05833,-0.40671 0,0.29195 -2.68513,1.47198 -2.96121,1.30135 -0.16904,-0.10447 -0.22207,-0.0638 -0.12389,0.0951 0.0944,0.15275 -0.0125,0.34838 -0.23745,0.43472 -0.25145,0.0965 -0.3416,0.0478 -0.23394,-0.12642 0.0963,-0.15587 -0.19514,-0.0919 -0.64772,0.14212 -0.45258,0.23403 -0.82287,0.48902 -0.82287,0.56663 0,0.0776 0.14883,0.0657 0.33073,-0.0264 0.1819,-0.0921 0.096,0.0225 -0.19085,0.2548 -0.28686,0.23229 -0.68,0.36154 -0.87363,0.28724 -0.19364,-0.0743 -0.28462,-0.026 -0.20219,0.1074 0.14429,0.23346 -0.83983,0.70514 -1.24687,0.59761 -0.10914,-0.0288 -0.19844,0.0629 -0.19844,0.20386 0,0.14095 -0.17759,0.18813 -0.39464,0.10484 -0.22731,-0.0872 -0.46528,0.0326 -0.56123,0.28267 -0.21331,0.55588 -1.61334,1.28688 -2.0032,1.04593 -0.17106,-0.10572 -0.22467,-0.0658 -0.12604,0.0938 0.19623,0.3175 -0.54054,0.67753 -0.91407,0.44667 -0.13599,-0.084 -0.21455,-0.01 -0.17456,0.1645 0.04,0.17453 -0.0927,0.37742 -0.29486,0.45087 -0.53025,0.19278 0.31511,-0.61996 -0.92564,-0.0283 -0.75965,0.36225 -1.62133,1.69008 -2.33938,1.24629 -0.1571,-0.0971 -0.21145,-0.0565 -0.12076,0.0902 0.0907,0.14673 -0.13465,0.40325 -0.50074,0.57005 -0.80853,0.36839 -1.18617,0.39119 -0.64071,0.0387 0.26458,-0.17099 0.28663,-0.25783 0.0661,-0.26053 -0.1819,-0.002 -0.57319,0.23841 -0.86954,0.53476 -0.29635,0.29635 -0.67194,0.45655 -0.83463,0.356 -0.19338,-0.11952 -0.22082,-0.0615 -0.0792,0.1676 0.15725,0.25444 0.096,0.30415 -0.2237,0.18148 -0.24216,-0.0929 -0.44028,-0.0466 -0.44028,0.10294 0,0.39495 -0.52917,-0.18551 -0.52917,0.24066 0,0.1627 -0.11906,0.22223 -0.26458,0.1323 -0.14552,-0.0899 -0.26458,-0.0247 -0.26458,0.14498 0,0.16968 -0.1786,0.23997 -0.39688,0.15621 -0.21828,-0.0838 -0.39687,-0.0407 -0.39687,0.0957 0,0.13639 -0.19813,0.17195 -0.44028,0.079 -0.32175,-0.12347 -0.3813,-0.0735 -0.22118,0.18555 0.16011,0.25907 0.10056,0.30903 -0.22118,0.18556 -0.24216,-0.0929 -0.44028,-0.0653 -0.44028,0.0614 0,0.12672 -0.35719,0.35491 -0.79375,0.5071 -0.43656,0.15218 -0.79375,0.21486 -0.79375,0.13927 0,-0.22678 -0.70252,0.78574 -1.23848,0.58008 -5.97359,2.32962 -13.06865,4.04527 -19.531316,5.55883 -7.312827,1.61664 -8.324248,1.70991 -19.579166,1.80538 -5.675312,0.0481 -10.85453,0.0443 -11.509374,-0.009 z M 168.61144,153.23214 c 0.21828,-0.14107 0.27781,-0.25648 0.13229,-0.25648 -0.14552,0 -0.44318,0.11541 -0.66146,0.25648 -0.21828,0.14106 -0.27781,0.25648 -0.13229,0.25648 0.14552,0 0.44317,-0.11542 0.66146,-0.25648 z m 2.27548,-1.51687 c -0.12579,-0.1258 -1.74632,0.92196 -1.74632,1.12909 0,0.0579 0.42181,-0.14352 0.93734,-0.44769 0.51554,-0.30418 0.87958,-0.61081 0.80898,-0.6814 z M 42.793652,183.00055 c -4.061897,-1.09612 -13.882209,-5.92026 -13.882209,-6.8195 0,-0.15562 -0.07467,-0.20826 -0.165945,-0.11699 -0.211911,0.21191 -2.479888,-1.33695 -2.479888,-1.69358 0,-0.14712 -0.108685,-0.20032 -0.241523,-0.11822 -0.132837,0.0821 -0.498856,-0.17877 -0.813374,-0.5797 -0.314519,-0.40093 -0.494419,-0.55037 -0.399778,-0.33209 0.09464,0.21828 -0.06444,0.12899 -0.353515,-0.19844 -0.289074,-0.32742 -0.636207,-0.59531 -0.771407,-0.59531 -0.1352,0 -0.686461,-0.47625 -1.225024,-1.05833 -0.538564,-0.58209 -1.08879,-1.05834 -1.222725,-1.05834 -0.133936,0 -0.628495,-0.58805 -1.099021,-1.30679 -0.470526,-0.71874 -0.951456,-1.24749 -1.068734,-1.17501 -0.117277,0.0725 -0.213232,-0.0609 -0.213232,-0.29632 0,-0.23546 -0.110835,-0.35961 -0.246301,-0.27588 -0.135465,0.0837 -0.321086,0.0312 -0.41249,-0.11668 -0.0914,-0.14789 -0.01033,-0.27072 0.180155,-0.27295 0.252258,-0.003 0.239132,-0.0718 -0.04832,-0.25357 -0.308567,-0.19508 -0.324889,-0.31928 -0.07482,-0.56935 0.250069,-0.25007 0.356643,-0.22395 0.488533,0.11975 0.09278,0.24178 0.273913,0.37457 0.402518,0.29508 0.128606,-0.0795 0.162923,0.0403 0.07626,0.26611 -0.08666,0.22584 -0.03569,0.41061 0.113274,0.41061 0.148963,0 0.314748,-0.13171 0.36841,-0.2927 0.0539,-0.16169 1.040761,0.35233 2.204861,1.14845 3.504035,2.39637 8.396211,4.80154 13.352084,6.56437 7.73577,2.75164 18.075481,3.15754 23.614061,0.927 0.836745,-0.33698 1.521354,-0.57831 1.521354,-0.53629 0,0.042 -0.565546,0.40682 -1.25677,0.81069 -0.691224,0.40386 -2.030677,1.29598 -2.976563,1.9825 -2.353226,1.70795 -10.136506,5.54054 -11.206344,5.51815 -0.457708,-0.01 -1.431296,-0.17908 -2.163529,-0.37667 z M 208.4986,179.092 c -2.53257,-1.42734 -7.87704,-5.4973 -9.98635,-7.60486 -5.18525,-5.18095 -11.20021,-14.31232 -13.3806,-20.31322 l -0.60364,-1.66133 2.42661,-1.14721 c 3.85514,-1.82255 5.73025,-3.50105 5.73291,-5.1318 0.003,-1.83768 -2.21662,-4.14142 -5.02365,-5.21405 -2.69348,-1.02923 -2.79068,-1.13221 -2.26253,-2.39693 1.4199,-3.40012 8.33611,-14.38132 11.60777,-18.43023 1.93921,-2.39989 8.09779,-8.84123 9.99109,-10.44979 2.09556,-1.78042 2.15096,-1.64891 0.72172,1.71317 -5.62998,13.24369 -8.02187,20.06567 -11.10114,31.66185 l -0.76815,2.89275 0.52557,1.60517 c 0.28907,0.88284 1.18068,3.92688 1.98136,6.76454 1.71823,6.08947 2.21711,7.56744 4.33145,12.83229 2.99986,7.46984 5.06952,12.09312 6.08237,13.58704 1.19153,1.75746 1.43772,2.15678 1.3271,2.15251 -0.045,-0.002 -0.76582,-0.38869 -1.60189,-0.8599 z m -13.17849,-5.15622 -0.9118,-0.99218 0.99219,0.91179 c 0.9235,0.84869 1.11384,1.07258 0.9118,1.07258 -0.0442,0 -0.4907,-0.44648 -0.99219,-0.99219 z M 67.276025,169.7686 c 0.493655,-0.50933 0.957086,-0.92605 1.029846,-0.92605 0.07276,0 -0.271608,0.41672 -0.765263,0.92605 -0.493655,0.50932 -0.957086,0.92604 -1.029847,0.92604 -0.07276,0 0.271608,-0.41672 0.765264,-0.92604 z m 75.538535,-0.79854 c 0.29104,-0.23698 0.76729,-0.54777 1.05834,-0.69066 l 0.52916,-0.25979 -0.52916,0.43086 c -0.29105,0.23697 -0.7673,0.54777 -1.05834,0.69065 l -0.52916,0.25979 z M 17.024743,165.8234 c -0.394277,-0.47507 0.145636,-0.89024 0.585588,-0.45029 0.216206,0.2162 0.205931,0.29444 -0.03867,0.29444 -0.183213,0 -0.25953,0.11907 -0.169593,0.26459 0.244656,0.39586 -0.02242,0.31889 -0.377325,-0.10874 z M 148.5031,165.55388 c 0,-0.0728 0.23813,-0.25973 0.52917,-0.41549 0.29104,-0.15576 0.52917,-0.22367 0.52917,-0.15091 0,0.0728 -0.23813,0.25973 -0.52917,0.41549 -0.29104,0.15576 -0.52917,0.22367 -0.52917,0.15091 z m 7.40834,-4.49792 c 0,-0.0728 0.23812,-0.25973 0.52916,-0.41549 0.29104,-0.15576 0.52917,-0.22367 0.52917,-0.15091 0,0.0728 -0.23813,0.25973 -0.52917,0.41549 -0.29104,0.15577 -0.52916,0.22368 -0.52916,0.15091 z M 29.109881,156.49649 c 0.181901,-0.0734 0.479557,-0.0734 0.661458,0 0.181901,0.0734 0.03307,0.13346 -0.330729,0.13346 -0.363802,0 -0.51263,-0.0601 -0.330729,-0.13346 z m 7.424869,-0.006 c 0.190996,-0.0764 0.419199,-0.067 0.507118,0.0209 0.08792,0.0879 -0.06835,0.15045 -0.347265,0.13896 -0.308225,-0.0127 -0.37092,-0.0754 -0.159853,-0.15985 z m 127.57877,-0.4621 c 0,-0.0728 0.23812,-0.25973 0.52917,-0.41549 0.29104,-0.15576 0.52916,-0.22367 0.52916,-0.15091 0,0.0728 -0.23812,0.25973 -0.52916,0.41549 -0.29105,0.15576 -0.52917,0.22367 -0.52917,0.15091 z m -66.89906,-0.43506 c -2.627064,-0.51662 -7.610588,-2.86367 -8.868636,-4.17679 l -0.710785,-0.7419 1.396013,0.25326 c 0.767807,0.1393 1.574607,0.3191 1.792888,0.39958 0.218281,0.0805 1.289844,0.11892 2.38125,0.0854 1.433976,-0.044 1.874295,0.0152 1.5875,0.21341 -0.284426,0.19659 0.390267,0.26798 2.38125,0.25199 1.951344,-0.0157 2.581272,-0.0918 2.116666,-0.25575 -0.474174,-0.16733 -0.273722,-0.19548 0.707967,-0.0994 0.827727,0.081 1.438327,0.0225 1.543617,-0.14784 0.0958,-0.15502 0.4023,-0.20946 0.6811,-0.12097 0.2962,0.094 0.5069,0.0361 0.5069,-0.13936 0,-0.17544 0.2107,-0.23337 0.5069,-0.13936 0.27879,0.0885 0.58647,0.0321 0.68372,-0.12522 0.0973,-0.15736 0.41984,-0.20898 0.71686,-0.11471 0.39449,0.1252 0.4843,0.0812 0.33324,-0.16321 -0.1506,-0.24367 -0.0516,-0.29403 0.3641,-0.18531 0.36208,0.0947 0.508,0.0475 0.39893,-0.12897 -0.11035,-0.17856 0.0763,-0.23082 0.52079,-0.14584 0.43422,0.083 0.63019,0.0312 0.52509,-0.13889 -0.10188,-0.16485 0.005,-0.20502 0.27259,-0.10238 0.24248,0.0931 0.44028,0.0411 0.44028,-0.11564 0,-0.15652 0.17859,-0.21605 0.39687,-0.13229 0.21829,0.0838 0.39688,0.0242 0.39688,-0.13229 0,-0.15652 0.18478,-0.21368 0.41062,-0.12702 0.26827,0.10295 0.34494,0.0513 0.22118,-0.14894 -0.12767,-0.20657 -0.0414,-0.24971 0.26458,-0.1323 0.24971,0.0958 0.3934,0.0761 0.31932,-0.0437 -0.0741,-0.11988 0.28519,-0.41819 0.79839,-0.66292 0.51321,-0.24473 0.85093,-0.312 0.75049,-0.1495 -0.1322,0.21391 -0.0277,0.21258 0.37849,-0.005 0.3086,-0.16516 0.5611,-0.36265 0.5611,-0.43888 0,-0.0762 -0.13746,-0.0537 -0.30547,0.0502 -0.19077,0.1179 -0.23358,0.0725 -0.11401,-0.121 0.1053,-0.17038 0.29812,-0.24385 0.42849,-0.16328 0.13037,0.0806 0.69875,-0.15905 1.26306,-0.5325 0.56534,-0.37412 1.21088,-0.60806 1.43772,-0.52102 0.22642,0.0869 0.50279,0.0106 0.61414,-0.1696 0.14622,-0.2366 0.0618,-0.27474 -0.30397,-0.1373 -0.30986,0.11643 -0.16493,-0.12414 0.37341,-0.61979 0.48391,-0.44554 1.00832,-0.73067 1.16536,-0.63361 0.15704,0.0971 0.21295,0.059 0.12424,-0.0845 -0.0887,-0.14354 0.42333,-0.8368 1.13786,-1.54059 0.71453,-0.70378 1.2496,-1.35978 1.18903,-1.45777 -0.15574,-0.252 1.48246,-1.75924 2.11915,-1.94974 0.3092,-0.0925 0.8844,0.0569 1.38053,0.35861 l 0.85047,0.51721 -0.39688,1.12488 c -0.72587,2.05733 -1.75116,3.45427 -4.60904,6.27973 -3.44889,3.40977 -3.7921,3.71153 -5.29576,4.65622 -1.5801,0.99272 -3.89266,1.89204 -6.48229,2.52088 -2.2633,0.54959 -7.127381,0.67106 -9.35219,0.23354 z m 68.22198,-0.35869 c 0,-0.0728 0.23812,-0.25973 0.52916,-0.41549 0.29104,-0.15576 0.52917,-0.22367 0.52917,-0.15091 0,0.0728 -0.23813,0.25973 -0.52917,0.41549 -0.29104,0.15576 -0.52916,0.22367 -0.52916,0.15091 z m -136.058891,-2.4547 c 0.329118,-0.0633 0.805368,-0.0609 1.058333,0.005 0.252965,0.0662 -0.01631,0.118 -0.598397,0.11506 -0.582083,-0.003 -0.789055,-0.0571 -0.459936,-0.1204 z m 57.443892,-2.65715 c -0.329107,-0.41964 -0.319749,-0.429 0.0999,-0.0999 0.254662,0.19972 0.463021,0.40808 0.463021,0.46302 0,0.21776 -0.217272,0.0776 -0.562916,-0.36313 z M 86.3678,148.73422 c 0,-0.3638 0.06005,-0.51263 0.133452,-0.33073 0.0734,0.1819 0.0734,0.47956 0,0.66146 -0.0734,0.1819 -0.133452,0.0331 -0.133452,-0.33073 z m -9.545888,-0.41892 c 0.0127,-0.30823 0.07539,-0.37092 0.159853,-0.15985 0.07643,0.19099 0.06703,0.4192 -0.02089,0.50711 -0.08792,0.0879 -0.150453,-0.0684 -0.138965,-0.34726 z m 3.704167,-0.26458 c 0.0127,-0.30823 0.07539,-0.37092 0.159852,-0.15986 0.07643,0.191 0.06703,0.4192 -0.02089,0.50712 -0.08792,0.0879 -0.150453,-0.0683 -0.138964,-0.34726 z m 9.479834,-0.55456 -2.802401,-0.10191 0.02406,-3.17808 0.02406,-3.17807 2.249176,-0.66565 c 1.237047,-0.36611 4.273238,-1.31041 6.747092,-2.09843 8.3529,-2.66076 13.85694,-3.52086 20.14666,-3.14826 3.40631,0.20179 3.46772,0.27902 1.67465,2.10603 -1.11987,1.14107 -1.21115,1.18075 -2.36495,1.02821 -1.56774,-0.20728 -7.50393,0.3047 -11.22373,0.96801 -1.61753,0.28844 -3.91997,0.64124 -5.116518,0.78401 -3.64192,0.43454 -9.871736,2.66058 -8.998416,3.21532 0.879735,0.55881 7.046889,0.0496 13.687514,-1.13009 1.67349,-0.2973 4.68191,-0.75001 6.68538,-1.00602 l 3.64267,-0.46546 -0.71894,0.75041 c -1.76716,1.84451 -6.63882,4.5564 -8.36629,4.65723 -0.11682,0.007 -0.4851,0.19109 -0.81842,0.40949 -0.33332,0.2184 -1.30931,0.52757 -2.16887,0.68705 -1.77371,0.3291 -8.12469,0.51814 -12.302725,0.36621 z m 23.827477,-1.32455 c 0.50421,-0.40957 1.57577,-1.2574 2.38125,-1.88406 1.39283,-1.08362 1.41122,-1.09009 0.37581,-0.13229 -0.59879,0.5539 -1.67035,1.40172 -2.38125,1.88406 -0.99289,0.67365 -1.08002,0.70432 -0.37581,0.13229 z M 4.9211817,144.89776 c 0.00117,-1.01864 0.048996,-1.40294 0.106272,-0.85399 0.057276,0.54895 0.056315,1.38239 -0.00213,1.85208 -0.05845,0.4697 -0.1053116,0.0206 -0.1041378,-0.99809 z M 117.81144,142.81349 c 0,-0.0549 0.20836,-0.2633 0.46302,-0.46302 0.41964,-0.3291 0.429,-0.31975 0.0999,0.0999 -0.34564,0.44073 -0.56291,0.58089 -0.56291,0.36312 z M 5.1198328,141.17155 c 0.012696,-0.30823 0.07539,-0.37092 0.1598524,-0.15985 0.07643,0.19099 0.067031,0.4192 -0.020888,0.50711 -0.087919,0.0879 -0.1504527,-0.0684 -0.1389644,-0.34726 z m 75.4062462,0 c 0.0127,-0.30823 0.07539,-0.37092 0.159852,-0.15985 0.07643,0.19099 0.06703,0.4192 -0.02089,0.50711 -0.08792,0.0879 -0.150453,-0.0684 -0.138964,-0.34726 z m 101.049941,0.14536 c -0.50932,-0.12067 -1.81901,-0.29963 -2.91042,-0.3977 -2.13404,-0.19175 -9.529,-1.20754 -18.25625,-2.50772 -9.15335,-1.36365 -13.50794,-1.81321 -26.9875,-2.7861 -2.98317,-0.21531 -6.17049,-0.45927 -7.08292,-0.54212 l -1.65897,-0.15064 0.66686,-0.79251 c 0.92927,-1.10438 1.10307,-1.97545 0.52221,-2.6173 -0.61611,-0.68079 -3.22582,-1.47404 -6.13228,-1.86396 -2.65658,-0.3564 -10.91102,-0.17375 -13.43469,0.29727 -3.47013,0.64768 -9.894265,2.61323 -12.964578,3.96668 -0.912072,0.40206 -1.774847,0.56914 -2.778125,0.53798 -2.584314,-0.0803 -10.582259,0.59538 -10.599355,0.89539 -0.0088,0.15464 -0.342958,-1.02852 -0.742548,-2.62925 -1.901671,-7.61797 -5.444326,-14.00279 -11.112974,-20.0286 -2.384161,-2.53438 -5.427669,-4.84661 -9.15082,-6.95212 -2.087596,-1.18058 -2.676375,-1.62468 -2.325857,-1.75434 0.495719,-0.18338 5.546312,-1.15434 7.34093,-1.41127 8.866331,-1.26936 23.597241,-1.21174 31.749999,0.1242 8.002788,1.31136 16.302648,3.35079 22.489578,5.52609 7.28792,2.56241 6.584,2.27676 14.55209,5.90525 7.8735,3.58541 23.7468,12.12469 28.51608,15.34064 0.84072,0.5669 2.75668,1.76839 4.25767,2.66997 2.54739,1.53009 2.81994,1.6331 4.09365,1.5472 0.87367,-0.0589 1.30232,-0.19273 1.19155,-0.37197 -0.10242,-0.16572 -0.0466,-0.20182 0.13677,-0.0885 0.17038,0.1053 0.25204,0.28488 0.18147,0.39907 -0.0706,0.11418 0.1732,0.34498 0.54171,0.51289 0.47331,0.21565 0.61685,0.21926 0.48894,0.0123 -0.12899,-0.20871 -0.0197,-0.20661 0.38002,0.007 0.3086,0.16516 0.56109,0.41516 0.56109,0.55557 0,0.1404 0.1,0.2255 0.22218,0.18912 0.1222,-0.0364 2.78917,1.2947 5.92658,2.95795 5.8812,3.11782 6.62617,3.75218 4.34012,3.6957 -0.60289,-0.0149 -1.51289,-0.12581 -2.02221,-0.24648 z M 20.480314,137.06373 c -5.291965,-0.11483 -9.685323,-0.27235 -9.763018,-0.35004 -0.149921,-0.14992 2.707147,-4.63187 4.700398,-7.37363 2.718906,-3.73991 9.864665,-10.48034 13.890624,-13.1027 1.018646,-0.66351 2.630333,-1.77 3.581526,-2.45885 2.762015,-2.00027 9.379456,-5.0964 13.827649,-6.4696 2.153483,-0.6648 4.237251,-1.21787 4.630594,-1.22906 0.997736,-0.0284 4.296832,1.57546 6.718043,3.26593 7.883638,5.50426 14.014604,13.30833 16.990603,21.62723 0.954597,2.66841 1.239982,4.00272 0.856271,4.00347 -0.166433,3.2e-4 -2.088542,0.17849 -4.271355,0.39591 -5.877074,0.58542 -6.31188,0.63066 -10.054166,1.04626 -1.89177,0.21009 -4.630208,0.46288 -6.085416,0.56176 l -2.645833,0.17978 0.105012,-1.95205 c 0.0691,-1.28451 0.16469,-1.72585 0.279525,-1.29058 l 0.174512,0.66145 0.179883,-0.66145 c 0.804411,-2.95794 -0.692251,-7.22395 -3.594922,-10.24678 -2.38223,-2.48084 -5.463677,-3.74458 -9.182551,-3.76589 -2.951688,-0.0169 -7.830349,2.35121 -9.517806,4.61996 -1.348199,1.81263 -1.708927,2.59233 -2.263418,4.89229 -0.710106,2.94543 -0.641107,4.77052 0.227752,6.02428 0.388056,0.55997 0.690891,1.12018 0.763336,1.40077 0.07244,0.28059 0.190649,0.41765 0.326678,0.4726 0.136029,0.055 -4.581956,-0.13627 -9.873921,-0.25109 z m 15.359018,-19.15619 c 3.661274,-1.73874 7.905926,-1.80851 12.85204,-0.21127 2.145903,0.69298 2.192189,0.69648 2.57779,0.19524 0.566155,-0.73595 0.779397,-1.71723 0.479171,-2.20501 -0.40212,-0.65333 -2.636254,-1.78167 -5.05992,-2.5555 -1.962692,-0.62665 -2.503053,-0.68943 -5.027083,-0.58406 -2.363574,0.0987 -3.210927,0.26056 -5.159617,0.98575 -2.761761,1.02777 -4.779994,2.30025 -4.891911,3.08432 -0.09827,0.68846 1.140315,2.2193 1.795616,2.2193 0.263002,0 1.358263,-0.41795 2.433914,-0.92877 z m -12.881013,-1.1879 c 0.263389,-0.29104 0.53842,-0.52917 0.611181,-0.52917 0.07276,0 -0.08321,0.23813 -0.346598,0.52917 -0.263389,0.29104 -0.53842,0.52917 -0.611181,0.52917 -0.07276,0 0.08321,-0.23813 0.346598,-0.52917 z m 101.116601,-13.53121 -2.07089,-0.8111 0.61568,-0.66509 c 1.3812,-1.49203 11.03878,-7.482182 12.06308,-7.482182 0.0977,0 -0.4851,0.68461 -1.2952,1.521355 -1.56437,1.615823 -3.07941,3.576179 -5.00328,6.473907 -0.80386,1.21077 -1.34889,1.77703 -1.70933,1.77589 -0.29104,-9.2e-4 -1.46107,-0.36667 -2.60006,-0.81278 z m -7.177,-2.49648 c -1.01175,-0.35335 -1.96425,-0.768263 -2.11666,-0.922019 -0.1939,-0.195611 -0.15366,-0.232605 0.13401,-0.123198 0.53217,0.202397 2.86922,-0.838742 5.94165,-2.646959 1.34397,-0.790971 3.84299,-2.037323 5.55338,-2.769672 1.71038,-0.732349 3.55401,-1.683379 4.09696,-2.1134 0.54294,-0.430021 1.71741,-1.155599 2.60992,-1.612395 0.89251,-0.456797 1.55943,-0.932977 1.48205,-1.058179 -0.18798,-0.304162 1.08738,-0.610966 1.4943,-0.359473 0.21767,0.134529 0.25167,0.08671 0.10596,-0.149061 -0.15984,-0.258617 -0.069,-0.30907 0.35636,-0.197846 0.31399,0.08211 0.51768,0.06318 0.45263,-0.04207 -0.065,-0.105251 0.97658,-0.399153 2.31474,-0.653115 1.33815,-0.253962 2.73067,-0.524343 3.09447,-0.600845 1.83602,-0.386089 -5.55586,3.691216 -8.5163,4.697525 -3.54086,1.203603 -7.46001,3.307941 -10.72641,5.759402 -1.77948,1.335514 -3.36125,2.663325 -3.51504,2.950685 -0.34523,0.64507 -0.48113,0.63723 -2.76202,-0.15938 z M 94.395815,98.992558 c -0.193411,-0.312944 0.06549,-0.312944 0.79375,0 0.510179,0.219232 0.508366,0.228058 -0.05053,0.245987 -0.318834,0.01023 -0.653282,-0.100466 -0.743219,-0.245987 z M 50.414238,98.397246 c 0.0636,-0.181901 0.335014,-0.290379 0.603133,-0.241063 0.399645,0.07351 0.429869,0.02024 0.167726,-0.295624 -0.255671,-0.308065 -0.226304,-0.458618 0.14652,-0.751125 0.413293,-0.324259 0.428959,-0.317964 0.13785,0.05539 -0.438187,0.561978 -0.138266,0.821025 0.416941,0.360119 0.501288,-0.416145 1.811381,-1.41442 3.629602,-2.765713 0.685315,-0.509323 3.820034,-3.495938 6.966042,-6.636922 8.470863,-8.457337 9.613254,-9.362636 10.339956,-8.194 0.334245,0.537511 -0.06793,1.185207 -1.980324,3.189256 -4.987965,5.227031 -8.124369,9.182207 -9.116171,11.495988 -0.4628,1.079668 -0.62647,1.213826 -1.909607,1.565281 -2.313753,0.633742 -6.133134,1.491538 -6.639484,1.491164 -0.260458,-1.93e-4 -0.940324,0.237775 -1.510813,0.528816 -1.209489,0.617036 -1.408789,0.64864 -1.251371,0.198438 z m 16.547594,0.149988 c 0.190996,-0.07643 0.419199,-0.06703 0.507118,0.02089 0.08792,0.08792 -0.06835,0.150453 -0.347266,0.138965 -0.308224,-0.0127 -0.370919,-0.07539 -0.159852,-0.159853 z m 17.991666,-0.529166 c 0.190996,-0.07643 0.419199,-0.06703 0.507118,0.02089 0.08792,0.08792 -0.06835,0.150453 -0.347266,0.138964 -0.308224,-0.0127 -0.370919,-0.07539 -0.159852,-0.159852 z M 105.01352,97.40232 c -0.99974,-0.266276 -1.92529,-0.591717 -2.05677,-0.723202 -0.33752,-0.337517 0.52401,-1.029965 1.55369,-1.248761 0.70947,-0.150757 0.96117,-0.06609 1.48554,0.49972 0.34724,0.374677 0.74807,0.681231 0.89073,0.681231 0.28329,0 1.13515,0.859488 1.13515,1.145313 0,0.288288 -1.06795,0.162513 -3.00834,-0.354301 z m 33.15978,-1.915491 c 0.64876,-0.691224 1.21431,-1.256771 1.25677,-1.256771 0.19867,0 -0.0114,0.23755 -1.17957,1.333975 L 136.99373,96.7436 Z M 52.977468,95.222246 c 1.096424,-1.168186 1.333974,-1.378239 1.333974,-1.179568 0,0.04246 -0.565547,0.608009 -1.256771,1.256771 L 51.7979,96.479017 Z m 44.678461,0.724524 c -0.07445,-0.07445 -0.992539,-0.223283 -2.040188,-0.330729 l -1.904816,-0.195358 1.372339,-1.322916 c 0.754787,-0.727604 1.288814,-1.174089 1.186726,-0.992188 -0.328849,0.58595 0.161184,0.355747 1.59118,-0.747487 0.901502,-0.695504 1.3453,-1.214426 1.250312,-1.461961 -0.120154,-0.313115 -0.22679,-0.32247 -0.579379,-0.05082 -0.27401,0.211108 -0.238502,0.09558 0.09704,-0.31574 1.035345,-1.269148 1.09826,-1.313125 1.419297,-0.992084 0.41593,0.415935 0.37646,0.73637 -0.06961,0.565192 -0.203561,-0.07811 -0.443407,-0.02343 -0.53299,0.121517 -0.08958,0.144948 0.315092,0.532177 0.89928,0.860508 0.58419,0.328331 1.06216,0.786674 1.06216,1.01854 0,0.554169 -0.62655,1.473081 -1.946281,2.854422 -1.005451,1.052397 -1.481125,1.313049 -1.805067,0.989107 z M 65.953108,94.87948 c 0,-0.53048 1.924842,-3.559838 2.261907,-3.559838 0.21116,0 0.383926,-0.126089 0.383926,-0.280198 0,-0.154109 -0.148828,-0.194552 -0.330729,-0.08987 -0.181901,0.10468 -0.245165,0.09559 -0.140586,-0.02019 0.104578,-0.115782 0.609342,-0.248129 1.121696,-0.294104 1.056082,-0.09476 1.193165,-0.210407 3.840357,-3.239701 2.62119,-2.999541 3.089354,-3.44438 4.275822,-4.062802 0.564116,-0.294034 1.107457,-0.671104 1.207425,-0.837933 0.09997,-0.16683 -0.04945,-0.131686 -0.33205,0.0781 -0.416053,0.308854 -0.405126,0.264492 0.05743,-0.233162 0.574742,-0.618352 1.277235,-0.631492 2.185963,-0.04089 0.501277,0.325792 0.207981,0.738874 -3.023439,4.258252 -1.402949,1.527969 -3.226668,3.65357 -4.052708,4.723558 -2.784939,3.607394 -2.446884,3.344887 -4.323744,3.357468 -0.921834,0.0062 -2.003485,0.108384 -2.403667,0.227121 -0.400182,0.118737 -0.727604,0.125123 -0.727604,0.01419 z m 3.982555,-2.89838 c 0.34585,-0.586045 0.448613,-0.917465 0.230277,-0.742668 -0.21686,0.173615 -0.674523,0.828459 -1.017029,1.455208 -0.752241,1.37652 -0.0946,0.78091 0.786752,-0.71254 z m 18.903902,2.778125 c -0.291041,-0.125065 -1.273307,-0.235759 -2.182812,-0.245987 -0.909505,-0.01023 -1.653646,-0.128524 -1.653646,-0.262879 0,-0.430626 1.362041,-1.879433 1.618101,-1.721179 0.331227,0.204709 3.490767,-1.803715 5.096289,-3.239557 1.074273,-0.960739 1.340193,-1.090552 1.5875,-0.774962 0.163387,0.2085 0.516747,0.4189 0.785243,0.467557 0.397197,0.07198 0.182801,0.433625 -1.150426,1.940549 -0.901231,1.018646 -1.935895,2.358099 -2.299254,2.976562 -0.677878,1.153799 -0.885906,1.253123 -1.800995,0.859896 z M 75.742691,94.319789 c 0,-0.304216 0.678556,-1.300888 1.673621,-2.458235 0.629468,-0.732127 0.982293,-0.915824 1.778635,-0.926041 0.901225,-0.01156 1.19418,-0.227279 3.157191,-2.324782 2.838894,-3.033394 3.437433,-3.451487 4.622783,-3.229114 0.840594,0.157697 0.899472,0.225097 0.63246,0.724012 -0.161931,0.302571 -1.260621,1.572763 -2.441534,2.82265 -1.180913,1.249886 -2.613389,2.954104 -3.183281,3.78715 l -1.036166,1.514629 -2.006542,0.0036 c -1.103598,0.002 -2.274433,0.07541 -2.601855,0.163151 -0.327421,0.08774 -0.595312,0.05308 -0.595312,-0.07703 z M 55.634359,92.77485 c 0.493655,-0.509323 0.957086,-0.926041 1.029846,-0.926041 0.07276,0 -0.271608,0.416718 -0.765263,0.926041 -0.493655,0.509323 -0.957086,0.926042 -1.029847,0.926042 -0.07276,0 0.271608,-0.416719 0.765264,-0.926042 z M 89.23644,89.335267 c 0.790423,-0.800364 1.496663,-1.455208 1.569424,-1.455208 0.07276,0 -0.514418,0.654844 -1.30484,1.455208 -0.790423,0.800365 -1.496664,1.455208 -1.569424,1.455208 -0.07276,0 0.514418,-0.654843 1.30484,-1.455208 z m -10.186458,0.396875 c 0.263389,-0.291042 0.538421,-0.529167 0.611181,-0.529167 0.07276,0 -0.08321,0.238125 -0.346597,0.529167 -0.263389,0.291042 -0.538421,0.529167 -0.611181,0.529167 -0.07276,0 0.08321,-0.238125 0.346597,-0.529167 z m -9.128124,-1.422811 c 0,-0.05494 0.208359,-0.263302 0.463021,-0.463021 0.419644,-0.329108 0.429002,-0.319749 0.0999,0.0999 -0.345644,0.440729 -0.562916,0.580887 -0.562916,0.363126 z m 10.318749,0 c 0,-0.05494 0.20836,-0.263302 0.463021,-0.463021 0.419644,-0.329108 0.429002,-0.319749 0.0999,0.0999 -0.345644,0.440729 -0.562916,0.580887 -0.562916,0.363126 z M 60.396858,87.2186 c 0.341775,-0.363802 0.680939,-0.661458 0.7537,-0.661458 0.07276,0 -0.147342,0.297656 -0.489116,0.661458 -0.341775,0.363803 -0.680939,0.661459 -0.7537,0.661459 -0.07276,0 0.147342,-0.297656 0.489116,-0.661459 z m 12.832291,-2.778124 c 0.568389,-0.582084 1.092966,-1.058334 1.165727,-1.058334 0.07276,0 -0.332754,0.47625 -0.901143,1.058334 -0.568389,0.582083 -1.092966,1.058333 -1.165727,1.058333 -0.07276,0 0.332754,-0.47625 0.901143,-1.058333 z"
       id="path11966"
       sodipodi:nodetypes="ssscssssssscscssssssssssscssssssscsscscsssscsssssssssssscsssssssssssssssssssssssssssscssssssssscssssscsssssssscsssscssssssssscscscsssssssssssssssssssssssssscssssscsssssssssssssssssssccsssssssssssssssssssssssssccsssssssssssscssssscsssssssscsssscsscsssssssssscsscsssssssssssssssscsscsssssssssscscsscssssssssssssssscssssssssscscssssssssssssscssssccssssscccccsssssssssssssssssssccccsssssssssscscssscsssssssssssssssssssssssscsssscssssscssssssssssssssssscsssscccsssssssssssscsscsssssszzccssssscsssssssssscssssssssssssssssscssssssssssssssssssssssssssssssssssssssssssssssscsssscssscssssssssssssssssssssssssssssssssssssssssssssssssssssssccssssssssssssssssssssssssssssssssssssss" /><path
       style="display:inline;fill:#031e50"
       d="m 91.581898,207.73542 c -7.661171,-0.9343 -15.41973,-4.61011 -22.73108,-10.76941 -1.389436,-1.17051 -3.523627,-2.80347 -4.742648,-3.62881 -1.953786,-1.32282 -2.438199,-1.52913 -4.088335,-1.74121 -2.467328,-0.31711 -9.492163,-1.73269 -11.000059,-2.21664 -14.271968,-4.58047 -23.279373,-9.47084 -30.38439,-16.49654 -8.829911,-8.73135 -13.5364414,-18.35552 -13.5364414,-27.68008 0,-9.06135 4.4416427,-19.08205 12.2066064,-27.53907 2.843702,-3.09715 7.353512,-6.98596 10.547559,-9.09517 3.942739,-2.6036 10.024295,-5.711 14.667373,-7.49436 3.074539,-1.180894 3.755931,-1.542504 4.101041,-2.17639 1.114597,-2.047252 4.057799,-6.137651 6.159374,-8.560165 5.031337,-5.79969 13.761289,-13.277727 16.030371,-13.731544 0.848787,-0.169757 3.693826,0.66133 7.196005,2.102083 1.236927,0.508857 3.26099,1.301329 4.497917,1.761049 1.236927,0.45972 3.022864,1.168892 3.968749,1.575938 0.945886,0.407046 2.076979,0.861473 2.513542,1.009838 2.479861,0.842776 12.576501,5.971807 12.56186,6.381347 -0.0032,0.08996 -1.311876,1.473252 -2.908133,3.073981 l -2.902285,2.910416 0.989904,0.07252 c 0.544447,0.03989 1.57552,0.191761 2.291274,0.337501 1.231168,0.250686 1.343621,0.225365 2.084592,-0.469395 1.108306,-1.039186 2.302576,-2.719098 2.302576,-3.238895 0,-0.242412 -0.47797,-0.709383 -1.06215,-1.037714 -1.042222,-0.585759 -1.211056,-1.148924 -0.3029,-1.010329 0.59871,0.09137 4.43167,2.100298 5.50499,2.885271 0.45796,0.334927 2.05043,1.670097 3.53881,2.967046 3.08714,2.690063 2.54528,2.671906 5.63997,0.188986 3.32521,-2.667864 6.03696,-4.422761 9.56774,-6.191725 3.43941,-1.723182 9.50034,-3.971308 13.31871,-4.94019 5.32613,-1.351459 11.952,-2.021949 12.68983,-1.284118 0.17463,0.174625 0.3175,0.704848 0.3175,1.178273 0,0.934197 0.0302,0.905193 -3.04271,2.920079 -3.00179,1.968243 -9.2301,7.349182 -11.05526,9.55118 -2.8824,3.477517 -6.03566,8.320867 -5.66114,8.695387 0.0669,0.0669 2.12017,1.06785 4.56291,2.22442 2.44273,1.15657 4.63814,2.28096 4.87867,2.49864 0.58395,0.52847 0.79253,0.49871 0.79253,-0.1131 0,-0.64212 1.21948,-2.11073 1.99867,-2.40698 0.82967,-0.31544 1.59333,-0.0543 1.91668,0.65536 0.15163,0.33279 0.35963,1.56733 0.46222,2.74343 l 0.18654,2.13836 2.07275,1.07837 c 1.14002,0.5931 2.14419,1.19393 2.23148,1.33518 0.33757,0.5462 0.89934,0.20839 1.57731,-0.94848 0.78504,-1.33956 1.62044,-1.85518 2.60528,-1.608 0.87889,0.22059 1.23657,1.34259 1.23657,3.87901 0,2.03624 0.004,2.04655 0.81782,2.38384 0.4498,0.18631 1.4916,0.77242 2.3151,1.30246 0.82351,0.53003 1.64155,1.05109 1.81787,1.1579 0.20793,0.12595 0.51103,-0.1791 0.86249,-0.86803 0.671,-1.31526 1.80821,-1.97393 2.77406,-1.60672 0.90266,0.34319 1.14039,1.01286 1.34499,3.78872 l 0.17167,2.32909 1.31185,0.71362 c 0.72152,0.39249 1.89181,1.08772 2.60065,1.54495 l 1.28879,0.83134 0.33105,-0.83134 c 0.66392,-1.66725 1.26924,-2.28654 2.23495,-2.28654 1.20091,0 1.58693,0.64911 1.96678,3.30729 0.16636,1.16416 0.35912,2.31348 0.42835,2.55403 0.0692,0.24055 0.90989,0.77058 1.86813,1.17784 0.95824,0.40726 2.02672,0.96423 2.37441,1.23773 l 0.63217,0.49726 0.9592,-2.07198 c 2.81019,-6.0703 3.63274,-7.72108 4.89458,-9.82302 6.3193,-10.52654 13.76866,-18.3622 22.19307,-23.343959 1.90843,-1.128545 4.54559,-2.110194 5.66895,-2.110194 0.88973,0 1.73265,0.549736 1.73265,1.129999 0,0.164148 -1.53398,3.876344 -3.40885,8.249334 -5.078,11.84406 -5.42319,12.68234 -6.76043,16.41754 -0.67727,1.89177 -1.39327,3.85995 -1.59111,4.37373 -0.37229,0.96682 -2.59339,8.58614 -3.58139,12.28573 -0.30954,1.15906 -0.68268,2.25183 -0.82921,2.42839 -0.18211,0.21943 -0.14776,0.55728 0.10856,1.06762 0.20624,0.41064 0.70034,1.93724 1.098,3.39245 2.91349,10.66188 6.10879,18.93827 11.71711,30.34938 3.02755,6.16007 3.31387,6.86494 3.03614,7.47448 -0.23939,0.52541 -0.50044,0.67301 -1.19033,0.67301 -4.02112,0 -14.09266,-6.11867 -19.64707,-11.936 -4.92244,-5.15544 -10.20626,-13.14816 -12.98753,-19.64594 -0.55218,-1.29002 -1.12917,-2.39354 -1.28221,-2.45226 -0.15304,-0.0587 -1.28806,0.43324 -2.52226,1.09327 l -2.24401,1.20006 -0.47518,2.39174 c -0.68901,3.46793 -0.79796,3.68455 -1.85318,3.68455 -1.04538,0 -1.77238,-0.67258 -2.5109,-2.32294 -0.44426,-0.9928 -0.54951,-1.08071 -0.85424,-0.71353 -0.19116,0.23033 -1.15524,0.89049 -2.14242,1.46703 -0.98717,0.57654 -1.86259,1.15785 -1.94538,1.2918 -0.0828,0.13395 -0.33751,1.35255 -0.56605,2.70799 -0.49418,2.93085 -0.8782,3.65506 -1.93814,3.65506 -0.8969,0 -2.07639,-1.23288 -2.31345,-2.41819 -0.0832,-0.41624 -0.21454,-0.75681 -0.29175,-0.75681 -0.0772,0 -0.5386,0.30373 -1.02529,0.67495 -0.48669,0.37122 -1.57408,1.01688 -2.41642,1.43481 l -1.53152,0.75986 -0.33369,2.30794 c -0.41042,2.83864 -0.86747,3.81828 -1.78141,3.81828 -0.67508,0 -1.36919,-0.57723 -2.4012,-1.99687 -0.52993,-0.72898 -0.60959,-0.75588 -1.19062,-0.402 -0.34248,0.20859 -1.54543,0.90029 -2.67321,1.53711 -2.04562,1.15507 -2.05053,1.1605 -2.05366,2.26657 -0.004,1.41396 -0.65044,3.86008 -1.15288,4.36252 -0.65797,0.65796 -1.67802,0.17353 -2.54595,-1.2091 -0.4319,-0.68802 -0.83015,-1.37 -0.88499,-1.51552 -0.0548,-0.14552 -0.4755,0.008 -0.93478,0.34116 -0.7371,0.53468 -3.9512,2.26204 -8.16419,4.38768 -1.34338,0.6778 -1.37405,0.71839 -1.07576,1.424 1.51574,3.58553 10.43784,12.27799 15.69818,15.29413 3.98679,2.28592 4.83123,3.32325 3.44481,4.23167 -0.56901,0.37283 -1.09649,0.38967 -4.43705,0.14168 -3.52594,-0.26176 -8.8317,-1.10254 -12.87513,-2.04028 -4.45224,-1.03254 -12.16801,-4.43191 -15.19467,-6.69438 -0.96166,-0.71886 -2.48205,-1.80517 -3.37864,-2.41404 -0.89659,-0.60886 -1.86933,-1.34618 -2.16163,-1.63849 l -0.53146,-0.53146 -3.07584,0.95752 c -1.69171,0.52663 -4.86178,1.36644 -7.04459,1.86624 -2.182811,0.4998 -4.742655,1.08935 -5.68854,1.31012 -0.945886,0.22077 -3.216895,0.5445 -5.046687,0.7194 l -3.326896,0.318 0.624809,1.61457 c 1.582677,4.08978 2.790801,6.20541 6.57321,11.51084 1.00247,1.40612 1.148265,1.75378 0.857434,2.04462 -0.495533,0.49553 -1.654525,0.60913 -3.686412,0.36134 z m -4.014967,-5.72098 c -0.841366,-1.48382 -0.850271,-1.4901 -2.819017,-1.98683 -3.116013,-0.78621 -8.612633,-4.1163 -9.654808,-5.8493 -0.240027,-0.39913 -0.638548,-0.82912 -0.885602,-0.95552 -0.651187,-0.33319 -2.96273,-0.59673 -2.96273,-0.33779 0,0.50206 1.669895,2.46882 2.970018,3.49802 3.784889,2.99617 7.330056,4.89818 11.846648,6.35582 1.236927,0.39919 2.271586,0.73443 2.299241,0.74497 0.02765,0.0105 -0.329532,-0.65068 -0.79375,-1.46937 z m -2.545552,-5.59151 c -0.286248,-0.99809 -1.534175,-3.42781 -1.865829,-3.63279 -0.148565,-0.0918 -1.397904,-0.0842 -2.776307,0.017 l -2.506188,0.18396 1.514505,1.08776 c 1.640834,1.17848 5.026319,3.05587 5.530932,3.06712 0.215496,0.005 0.247379,-0.21927 0.102887,-0.72308 z m 55.147351,-1.13706 c -2.32089,-1.56675 -3.25564,-2.00422 -5.02708,-2.3527 -5.33046,-1.04864 -11.34067,-3.89595 -14.38892,-6.81668 -0.65113,-0.6239 -1.28933,-1.13435 -1.41822,-1.13435 -0.12889,0 -0.8257,0.25439 -1.54846,0.56531 -1.28452,0.55259 -1.3035,0.57719 -0.8428,1.09258 0.94525,1.05745 6.0923,4.29714 8.54581,5.37896 4.51432,1.99047 12.54804,4.27225 15.20884,4.31968 l 1.05833,0.0189 z m -8.26089,-7.50023 c -1.44551,-1.51401 -3.09518,-3.4775 -3.66594,-4.36331 -0.57077,-0.88581 -1.17935,-1.61161 -1.35242,-1.61288 -0.17307,-0.001 -1.12557,0.41382 -2.11667,0.92244 -0.9911,0.50861 -1.97066,0.92533 -2.17681,0.92604 -0.97174,0.003 4.81056,4.10436 7.29373,5.17297 0.95739,0.41201 4.3469,1.676 4.55224,1.69759 0.0517,0.005 -1.08861,-1.22884 -2.53413,-2.74285 z m -40.951608,0.55461 c 8.382485,-1.29096 23.992698,-5.6619 31.088538,-8.70494 5.41717,-2.32315 7.0931,-3.13869 14.02292,-6.82378 5.07773,-2.7002 15.20901,-8.66695 21.69583,-12.77762 3.29726,-2.08945 13.64844,-8.22512 16.95539,-10.05032 2.71318,-1.49748 6.7813,-3.45953 9.10607,-4.39185 2.42678,-0.97323 4.19122,-2.10045 4.31796,-2.75854 0.0642,-0.33346 -0.35519,-0.65285 -1.58617,-1.20792 -4.99255,-2.25125 -18.50519,-9.88769 -23.10471,-13.05725 -2.85601,-1.9681 -10.18027,-6.54011 -12.4492,-7.77115 -1.01106,-0.54857 -2.31455,-1.31162 -2.89663,-1.69568 -1.92659,-1.27117 -9.27494,-5.24227 -15.0909,-8.15524 -7.56446,-3.78871 -18.51219,-7.86734 -24.69407,-9.19991 -1.69264,-0.36486 -3.9705,-0.88892 -5.0619,-1.16457 -2.31376,-0.584365 -7.86182,-1.590637 -9.392712,-1.703586 -0.582083,-0.04295 -3.141927,-0.288163 -5.688541,-0.544928 -3.725155,-0.375591 -6.026576,-0.437386 -11.773958,-0.316137 -7.692934,0.162293 -9.811476,0.408719 -18.256249,2.123541 -2.473854,0.50235 -5.361119,1.05567 -6.416145,1.2296 -1.055026,0.17393 -1.918229,0.42121 -1.918229,0.54952 0,0.12831 0.684609,0.42322 1.521354,0.65536 3.492988,0.96907 5.849245,2.04209 9.713037,4.42324 4.265148,2.6285 7.280647,5.48998 11.091531,10.52504 2.18093,2.88151 4.900937,8.08852 6.076211,11.63193 2.387324,7.19768 3.101006,15.57081 1.901662,22.31086 -0.914112,5.1371 -3.538184,11.69062 -6.413915,16.01849 -1.762237,2.65211 -6.17442,7.21117 -8.279465,8.55509 -0.800364,0.51097 -2.131224,1.36354 -2.957466,1.8946 -2.96993,1.90889 -7.55192,4.13059 -10.668575,5.17296 -1.941061,0.64918 -3.206996,1.21341 -3.257329,1.45177 -0.133908,0.63417 0.962298,1.14084 4.051079,1.87242 6.207162,1.47018 8.802095,1.90244 14.155208,2.35794 2.977222,0.25334 21.931647,-0.0982 24.209374,-0.44894 z m 1.446104,-36.95556 c -4.798725,-0.3755 -5.919121,-0.92431 -5.763102,-2.82295 l 0.08366,-1.01814 6.879166,-0.0143 c 6.92792,-0.0144 9.6409,-0.27755 10.8192,-1.04961 0.30683,-0.20104 0.64592,-0.3746 0.75354,-0.38568 1.90215,-0.19588 6.72178,-2.87495 8.48741,-4.71788 l 0.71894,-0.75041 -3.64267,0.46546 c -2.00346,0.25601 -5.01188,0.70872 -6.68537,1.00602 -6.640632,1.17972 -12.807786,1.6889 -13.687521,1.13009 -0.87332,-0.55474 5.356496,-2.78078 8.998416,-3.21532 1.196555,-0.14277 3.498995,-0.49557 5.116525,-0.78401 3.75108,-0.66889 9.66032,-1.17472 11.25698,-0.9636 l 1.23336,0.16308 1.94164,-2.1399 c 1.0679,-1.17695 1.94164,-2.27565 1.94164,-2.44156 0,-0.58498 -2.1742,-0.76683 -7.54063,-0.6307 -4.96178,0.12586 -5.7632,0.21541 -9.40518,1.05101 -4.28451,0.983 -6.908158,1.82374 -12.641649,4.05096 -2.012058,0.7816 -3.887292,1.42109 -4.167188,1.42109 -0.786415,0 -1.611972,-0.98056 -1.517116,-1.80197 0.09663,-0.83677 1.128525,-1.40349 6.299881,-3.45995 4.925071,-1.95852 5.908745,-2.29994 9.525002,-3.30599 5.2995,-1.47432 6.21591,-1.58661 12.96459,-1.58854 5.59948,-0.002 6.42816,0.0563 8.33437,0.58211 2.31196,0.63777 3.39731,1.27684 3.51684,2.07079 0.0901,0.59812 -0.39404,1.2885 -4.39891,6.27334 -3.05188,3.79866 -8.37532,8.29691 -11.92864,10.07957 -1.62643,0.81596 -4.66269,1.83097 -7.42991,2.48378 -1.72386,0.40667 -6.835394,0.56574 -10.063279,0.31316 z m -42.285781,29.86627 c 2.379948,-1.17903 5.101085,-2.70341 6.04697,-3.38751 0.945886,-0.68411 2.969948,-1.99592 4.497917,-2.91513 7.000443,-4.21144 11.072987,-9.22678 14.059574,-17.31437 1.576908,-4.27022 2.117591,-7.07674 2.272994,-11.79841 0.221356,-6.72555 -0.494632,-11.29431 -2.588444,-16.51702 -3.050905,-7.61004 -9.003148,-14.88276 -16.337866,-19.96234 -2.706966,-1.87468 -3.909197,-2.46779 -7.539727,-3.71965 -1.681269,-0.57972 -3.421753,-1.24274 -3.867742,-1.47337 -0.97351,-0.50342 -1.298223,-0.4364 -5.246509,1.08295 -4.953309,1.90609 -9.032192,4.21904 -14.088649,7.98902 -3.274145,2.44113 -8.679297,7.65417 -10.608439,10.23139 -4.860109,6.49281 -8.1463953,15.39389 -7.8635943,21.29895 l 0.082363,1.71979 3.1750003,1.59843 c 3.947599,1.98739 10.294404,3.92227 14.844211,4.52538 3.768038,0.49949 11.117075,0.36101 13.99537,-0.26371 3.020622,-0.6556 5.999875,-1.68628 7.350207,-2.5428 1.364252,-0.86536 1.758221,-1.45845 1.283883,-1.93279 -0.436386,-0.43638 -0.367148,-1.10943 0.163306,-1.58747 1.609011,-1.45002 3.981521,-0.26328 4.55474,2.2783 0.205723,0.91215 -0.102094,1.88701 -0.515214,1.63169 -0.125087,-0.0773 -0.980972,0.46695 -1.901968,1.20946 -0.920995,0.7425 -2.241621,1.63947 -2.934723,1.99326 -1.889084,0.96427 -5.570632,2.12727 -8.397106,2.65264 -3.45888,0.64293 -11.644271,0.63508 -15.865674,-0.0152 -5.130288,-0.79029 -13.365378,-3.41314 -14.68047,-4.67568 -0.5715752,-0.54873 -0.5438886,-0.13084 0.12863,1.9415 2.370572,7.30485 8.253248,15.26301 15.264906,20.65057 5.951941,4.5733 15.862163,9.35107 19.55668,9.42837 0.534403,0.0112 2.380635,-0.74968 5.159374,-2.12626 z M 39.064051,141.89801 c -1.784678,-0.61684 -2.494895,-1.10477 -3.637245,-2.49886 -1.331142,-1.62448 -1.752896,-2.79826 -1.752654,-4.87778 1.68e-4,-1.44269 0.155176,-2.12201 0.79077,-3.46554 0.734102,-1.55176 1.324342,-1.94904 1.326677,-0.89297 0.0016,0.73755 0.994823,2.13686 1.914821,2.69779 1.088993,0.66397 2.231011,0.66849 3.225725,0.0128 1.998998,-1.31775 1.933532,-3.75676 -0.144489,-5.38305 -1.468055,-1.14893 -0.423011,-1.55385 2.464409,-0.95488 6.469874,1.34211 8.471473,8.68679 3.680673,13.50588 -2.233612,2.2468 -4.911632,2.87868 -7.868687,1.85664 z m -9.048529,-5.05582 c -0.02516,-0.21046 -0.363245,-0.8408 -0.751301,-1.40077 -0.868859,-1.25376 -0.937858,-3.07885 -0.227752,-6.02428 1.11185,-4.61183 3.248676,-6.87658 8.251606,-8.74561 2.329316,-0.8702 3.9907,-0.97161 6.63224,-0.40482 2.490879,0.53447 4.293574,1.54377 6.079929,3.40407 2.428187,2.52871 3.794184,5.62629 3.760295,8.52698 -0.02741,2.34602 -0.390928,2.60212 -0.75111,0.52917 -0.452636,-2.60505 -1.031,-3.74727 -2.919813,-5.76642 -1.842617,-1.96976 -4.289564,-3.37835 -6.759518,-3.89111 -2.082299,-0.43228 -4.775753,0.0204 -7.217411,1.21313 -2.212493,1.08075 -3.582521,2.58311 -4.925901,5.40169 -0.711269,1.49234 -0.839904,2.10472 -0.972599,4.63021 -0.08411,1.60073 -0.173505,2.73822 -0.198665,2.52776 z m 2.213112,-18.83612 c -0.389607,-0.46302 -0.663318,-1.07741 -0.618832,-1.38906 0.111917,-0.78407 2.13015,-2.05655 4.891911,-3.08432 1.94869,-0.72519 2.796043,-0.88708 5.159617,-0.98575 2.52403,-0.10537 3.064391,-0.0426 5.027083,0.58406 2.423666,0.77383 4.6578,1.90217 5.05992,2.5555 0.300226,0.48778 0.08698,1.46906 -0.479171,2.20501 -0.385601,0.50124 -0.431887,0.49774 -2.57779,-0.19524 -4.946114,-1.59724 -9.190766,-1.52747 -12.85204,0.21127 -1.075651,0.51082 -2.170912,0.92877 -2.433914,0.92877 -0.263002,0 -0.792555,-0.37361 -1.176784,-0.83024 z m 177.755706,61.61825 c -0.10885,-0.1819 -0.65378,-1.00312 -1.21095,-1.82493 -1.01285,-1.49392 -3.08251,-6.1172 -6.08237,-13.58704 -2.11434,-5.26485 -2.61322,-6.74282 -4.33145,-12.83229 -0.80068,-2.83766 -1.69229,-5.8817 -1.98136,-6.76454 l -0.52557,-1.60517 0.76815,-2.89275 c 1.44661,-5.44777 3.44441,-12.15317 4.48802,-15.06358 2.16242,-6.03055 7.3322,-18.59384 8.41553,-20.45092 0.36458,-0.62498 0.62496,-1.24768 0.57863,-1.38377 -0.23097,-0.67841 -7.9233,5.13441 -11.10062,8.38834 -2.65119,2.71511 -6.94702,8.41107 -9.25664,12.27362 -2.48422,4.15457 -6.08509,12.20906 -5.65189,12.64226 0.0759,0.0759 0.52264,0.28147 0.99287,0.45693 4.49442,1.67707 6.11751,2.73773 7.08179,4.62788 0.65492,1.28376 0.6546,2.00713 -10e-4,3.08296 -0.71276,1.16898 -2.34047,2.31628 -5.2125,3.67406 l -2.42661,1.14721 0.60364,1.66133 c 2.18039,6.0009 8.19535,15.13227 13.3806,20.31322 2.10931,2.10756 7.45378,6.17752 9.98635,7.60486 1.72623,0.9729 1.7557,0.98346 1.48574,0.53232 z m -81.60003,-77.399 c 1.92387,-2.897728 3.43891,-4.858084 5.00328,-6.473907 0.8101,-0.836745 1.39294,-1.521355 1.2952,-1.521355 -1.0243,0 -10.68188,5.990152 -12.06308,7.482182 l -0.61568,0.66509 2.07089,0.8111 c 1.13899,0.44611 2.30902,0.81186 2.60006,0.81278 0.36044,0.001 0.90547,-0.56512 1.70933,-1.77589 z m -8.72437,-1.37399 c 0.15379,-0.28736 1.73556,-1.615172 3.51504,-2.950686 3.2664,-2.451461 7.18555,-4.555799 10.72641,-5.759402 0.91859,-0.312245 2.60213,-1.0363 3.74119,-1.609011 2.01458,-1.01291 5.60003,-3.173776 5.27451,-3.178825 -0.96761,-0.01501 -7.20056,1.539165 -9.89211,2.466578 -6.304,2.172137 -9.53849,3.787529 -13.65093,6.817646 -0.95957,0.707029 -2.42356,1.694311 -3.25331,2.19396 -0.8323,0.50119 -1.38174,0.986877 -1.22558,1.083389 0.40231,0.248641 3.77836,1.415521 4.16374,1.439131 0.17678,0.0108 0.44725,-0.21542 0.60104,-0.50278 z M 51.665609,98.198808 c 0.570489,-0.291041 1.250355,-0.529009 1.510813,-0.528816 0.50635,3.74e-4 4.325731,-0.857422 6.639484,-1.491164 1.283137,-0.351455 1.446807,-0.485613 1.909607,-1.565281 0.981843,-2.290546 4.223663,-6.391917 8.982132,-11.363696 2.07413,-2.167108 2.429695,-2.737272 2.095932,-3.360913 -0.177517,-0.331693 -0.436033,-0.447681 -0.765053,-0.343254 -0.336727,0.106873 -0.590435,-0.01698 -0.786945,-0.384159 -0.159503,-0.298036 -0.434645,-0.541669 -0.611426,-0.541409 -1.124166,0.0017 -9.747169,7.845488 -12.672183,11.527131 -0.817265,1.028672 -2.380634,2.671062 -3.474153,3.649756 -1.093518,0.978694 -2.47487,2.410239 -3.06967,3.18121 -1.491091,1.932732 -1.460231,2.088734 0.241462,1.220595 z m 56.356251,-0.442187 c 0,-0.285825 -0.85186,-1.145313 -1.13515,-1.145313 -0.14266,0 -0.54349,-0.306554 -0.89073,-0.681231 -0.52437,-0.565808 -0.77607,-0.650477 -1.48554,-0.49972 -1.02968,0.218796 -1.89121,0.911244 -1.55369,1.248761 0.28071,0.280708 3.60556,1.196552 4.46979,1.231224 0.32743,0.01314 0.59532,-0.05604 0.59532,-0.153721 z M 69.084379,94.638168 c 1.87686,-0.01258 1.538805,0.249926 4.323744,-3.357468 0.82604,-1.069988 2.649759,-3.195589 4.052708,-4.723558 3.234438,-3.522665 3.524178,-3.931203 3.023439,-4.263092 -0.206775,-0.13705 -0.700706,-0.319831 -1.097625,-0.406181 -0.396919,-0.08635 -0.857982,-0.321244 -1.024584,-0.521988 -0.545033,-0.656724 -1.171761,-0.389886 -3.202116,1.363343 -1.918483,1.656626 -3.993195,4.004151 -6.098816,6.900774 -1.12921,1.553413 -3.108021,4.876784 -3.108021,5.219857 0,0.128295 0.324057,0.135169 0.727604,0.01543 0.400182,-0.118737 1.481833,-0.220941 2.403667,-0.227121 z m 0.06453,-1.944528 c 0.342506,-0.626749 0.800169,-1.281593 1.017029,-1.455208 0.218336,-0.174797 0.115573,0.156623 -0.230277,0.742668 -0.881349,1.49345 -1.538993,2.08906 -0.786752,0.71254 z m 8.710446,-9.675976 c 0,-0.05494 0.20836,-0.263301 0.463021,-0.463021 0.419644,-0.329107 0.429003,-0.319749 0.0999,0.0999 -0.345644,0.440729 -0.562916,0.580887 -0.562916,0.363126 z M 90.64056,93.899329 c 0.363359,-0.618463 1.398599,-1.957916 2.300534,-2.976562 1.444731,-1.631681 1.573252,-1.862212 1.079982,-1.937194 -0.34773,-0.05286 -0.771117,-0.504036 -1.11729,-1.190625 -0.306565,-0.608033 -0.595607,-1.148443 -0.642315,-1.200912 -0.224515,-0.252205 -7.258364,7.148828 -7.258364,7.637268 0,0.144836 0.744141,0.271706 1.653646,0.281934 0.909505,0.01023 1.891771,0.120922 2.182812,0.245987 0.915089,0.393227 1.123117,0.293903 1.800995,-0.859896 z m -11.700702,0.334342 2.006542,-0.0036 1.036166,-1.514629 c 0.569892,-0.833046 2.002368,-2.537264 3.183281,-3.78715 1.180913,-1.249887 2.279603,-2.520079 2.441534,-2.82265 0.266839,-0.498593 0.208219,-0.566299 -0.62576,-0.722755 -0.803948,-0.150821 -0.920181,-0.271375 -0.920181,-0.954387 0,-0.429969 -0.06427,-0.781761 -0.142832,-0.781761 -1.089654,0 -4.434847,3.110672 -7.666145,7.128697 -2.667096,3.316455 -2.979142,3.906722 -1.91446,3.621399 0.327422,-0.08775 1.498257,-0.161164 2.601855,-0.163151 z"
       id="path11965"
       sodipodi:nodetypes="ssssssssssssssssssscsssssssssssssssssssssscssssscssssscsscsssssscssssssssssssssssssscsssssssssssscssssssssssssssssssscsssscsssssssssssssssscscsssssssssscssscscscscsssssssssssssssssssssssssssssssccscsscscsssssscssssssssscscsssccsscsssssssssscsssssssssssssssssssssscscssssssssssssssscsssssssssssssscsssscssssssssscscsssccsssscscsssssssssssssssssssscsssssssssssssssssssssssssssssssssssssssssccsssssssssc" /></g></svg>
